<svg xmlns="http://www.w3.org/2000/svg" xmlns:xlink="http://www.w3.org/1999/xlink" viewBox="0 0 150 93.75"><defs><style>.cls-1{fill:url(#radial-gradient);}.cls-2{fill:#fff;}</style><radialGradient id="radial-gradient" cx="11.11" cy="12.86" r="110.39" gradientUnits="userSpaceOnUse"><stop offset="0" stop-color="#9dd5f6"/><stop offset="0.07" stop-color="#98d3f5"/><stop offset="0.16" stop-color="#89cef3"/><stop offset="0.25" stop-color="#70c6ef"/><stop offset="0.35" stop-color="#4ebbea"/><stop offset="0.45" stop-color="#23ade3"/><stop offset="0.5" stop-color="#0da6e0"/><stop offset="1" stop-color="#2e77bc"/></radialGradient></defs><title>american</title><g id="Layer_2" data-name="Layer 2"><g id="Layer_1-2" data-name="Layer 1"><rect class="cls-1" width="150" height="93.75" rx="5"/><path class="cls-2" d="M26.21,36.55,23.9,30.92l-2.3,5.63m55.46-2.24a3.11,3.11,0,0,1-1.66.29H71.3V31.46h4.15a3.43,3.43,0,0,1,1.6.26A1.28,1.28,0,0,1,77.76,33,1.45,1.45,0,0,1,77.06,34.31Zm29.23,2.24L104,30.92l-2.32,5.63ZM51.81,42.64H48.35V31.58L43.45,42.64h-3l-4.9-11.07V42.64H28.72l-1.3-3.15h-7l-1.31,3.15H15.43l6-14.12h5l5.74,13.36V28.52h5.5l4.42,9.58,4-9.58h5.62V42.64Zm13.78,0H54.32V28.52H65.59v2.94h-7.9V34H65.4V36.9H57.69v2.82h7.9ZM81.47,32.33a4,4,0,0,1-2.37,3.76,3.9,3.9,0,0,1,1.67,1.18,4.12,4.12,0,0,1,.55,2.59v2.78h-3.4V40.86c0-.85.08-2.07-.53-2.75a3.3,3.3,0,0,0-2.46-.61H71.3v5.14H67.93V28.52h7.75a8,8,0,0,1,4.09.68A3.3,3.3,0,0,1,81.47,32.33Zm5.4,10.31H83.43V28.52h3.44Zm39.93,0H122L115.62,32v10.6h-6.86l-1.32-3.15h-7l-1.28,3.15H95.22c-1.64,0-3.72-.37-4.89-1.57s-1.81-2.82-1.81-5.38a7.52,7.52,0,0,1,1.82-5.52c1.09-1.13,2.8-1.65,5.12-1.65h3.27v3h-3.2a3.25,3.25,0,0,0-2.59.83,4.65,4.65,0,0,0-1,3.2,4.87,4.87,0,0,0,.93,3.31,3.23,3.23,0,0,0,2.35.73h1.51l4.75-11.09h5.06l5.71,13.34V28.53h5.13l5.93,9.82V28.53h3.46V42.64ZM15.39,45.41h5.76l1.3-3.14h2.91l1.3,3.14H38V43l1,2.41H44.9l1-2.44v2.43H74.09l0-5.15h.55c.38,0,.49.05.49.68v4.47H89.69v-1.2a11.51,11.51,0,0,0,5.41,1.2h6.13l1.31-3.14h2.91l1.28,3.14h11.82v-3l1.79,3h9.46V25.73h-9.37v2.32l-1.31-2.32h-9.61v2.32l-1.21-2.32h-13a11.58,11.58,0,0,0-5.62,1.15V25.73h-9v1.15a5.51,5.51,0,0,0-3.81-1.15H44.17L42,30.81l-2.25-5.08H29.4v2.32l-1.13-2.32h-8.8l-4.08,9.35V45.41Z"/><path class="cls-2" d="M135.39,55.82h-6.15a2.34,2.34,0,0,0-1.36.25,1.1,1.1,0,0,0-.5,1,1.08,1.08,0,0,0,.74,1,4,4,0,0,0,1.3.16l1.83.05c1.84,0,3.08.36,3.83,1.13a2,2,0,0,1,.31.35m0,5.29c-.82,1.2-2.42,1.81-4.58,1.81H124.3v-3h6.49a1.88,1.88,0,0,0,1.36-.35,1.23,1.23,0,0,0,.4-.92,1.14,1.14,0,0,0-.41-.93,1.7,1.7,0,0,0-1.19-.32c-3.17-.1-7.12.1-7.12-4.37,0-2,1.3-4.2,4.84-4.2h6.72V50h-6.24a7,7,0,0,0-4.22,1.16V50h-9.24a6.39,6.39,0,0,0-4,1.16V50H95.18v1.16A8.78,8.78,0,0,0,90.63,50H79.75v1.16c-1-1-3.34-1.16-4.75-1.16H62.83L60,53l-2.61-3H39.25V69.7H57.09L60,66.64l2.71,3.06h11V65.08h1.08a11.46,11.46,0,0,0,4.7-.7V69.7h9.07V64.56H89c.56,0,.61,0,.61.59V69.7h27.55a7.87,7.87,0,0,0,4.59-1.26V69.7h8.74a11.76,11.76,0,0,0,4.95-.91V65.12Zm-13.45-5.64a4,4,0,0,1,1,3c0,3-1.89,4.46-5.29,4.46h-6.57v-3h6.54a2,2,0,0,0,1.38-.35,1.27,1.27,0,0,0,.4-.92,1.17,1.17,0,0,0-.42-.93,1.73,1.73,0,0,0-1.2-.32c-3.15-.1-7.1.1-7.1-4.37,0-2,1.29-4.2,4.82-4.2h6.76v3h-6.18a2.32,2.32,0,0,0-1.36.25,1.1,1.1,0,0,0-.5,1,1.08,1.08,0,0,0,.74,1,3.92,3.92,0,0,0,1.31.16l1.81.05C119.92,58.39,121.17,58.71,121.94,59.48ZM91.5,58.61a3.19,3.19,0,0,1-1.66.29h-4.1V55.73h4.15A3.24,3.24,0,0,1,91.5,56a1.33,1.33,0,0,1,.7,1.27A1.51,1.51,0,0,1,91.5,58.61Zm2,1.76a3.63,3.63,0,0,1,1.65,1.18,4.07,4.07,0,0,1,.56,2.58v2.8H92.36V65.16c0-.85.08-2.11-.54-2.76s-1.25-.63-2.48-.63h-3.6v5.16H82.35V52.81h7.79a8.39,8.39,0,0,1,4.06.67,3.3,3.3,0,0,1,1.73,3.13A4,4,0,0,1,93.54,60.37Zm4.26-7.56h11.26v2.92h-7.9V58.3h7.7v2.88h-7.7V64l7.9,0v2.93H97.8ZM75,59.33H70.68v-3.6h4.4c1.22,0,2.06.5,2.06,1.73S76.34,59.33,75,59.33Zm-7.72,6.31-5.17-5.75,5.17-5.56ZM54,64H45.66v-2.8h7.4V58.3h-7.4V55.73h8.46l3.68,4.11Zm26.82-6.52c0,3.92-2.93,4.73-5.88,4.73H70.68v4.74H64.13L60,62.25l-4.32,4.68H42.3V52.81H55.86L60,57.44l4.29-4.63H75.08C77.76,52.81,80.77,53.55,80.77,57.46Z"/></g></g></svg>