<svg xmlns="http://www.w3.org/2000/svg" viewBox="0 0 150 93.75"><defs><style>.cls-1{fill:#f9f9f9;}.cls-2{fill:#0054a5;}.cls-2,.cls-3{fill-rule:evenodd;}.cls-3{fill:#ec1c24;}</style></defs><title>dina</title><g id="Layer_2" data-name="Layer 2"><g id="Layer_1-2" data-name="Layer 1"><rect class="cls-1" width="150" height="93.75" rx="5"/><path class="cls-2" d="M22.43,49.44h1.51a4.83,4.83,0,0,0,2.91-.67,2.75,2.75,0,0,0,.85-2.24,2.82,2.82,0,0,0-.85-2.3A4.42,4.42,0,0,0,24,43.57H22.43v5.87Zm-5.69,3V40.54h6.84a34.63,34.63,0,0,1,3.94.12,9,9,0,0,1,2.17.55,5.83,5.83,0,0,1,2.79,2,5.73,5.73,0,0,1,.91,3.27,5.27,5.27,0,0,1-1.15,3.39A6.89,6.89,0,0,1,28.85,52a9.59,9.59,0,0,1-2.12.37c-.91.06-2.24.12-4.18.12Zm18.71-9.69V40.24h5.2v2.54Zm0,9.69V43.63h5.2v8.84Zm7.75,0V43.63h4.72V45a5.38,5.38,0,0,1,2-1.15,8.62,8.62,0,0,1,2.54-.36,7.63,7.63,0,0,1,2.12.24,3.86,3.86,0,0,1,1.57.78A2.74,2.74,0,0,1,57,45.69a6.51,6.51,0,0,1,.24,2.17v4.61H52.1V47.86a1.59,1.59,0,0,0-.43-1.33,1.94,1.94,0,0,0-1.33-.36,2.25,2.25,0,0,0-1.51.42,1.61,1.61,0,0,0-.43,1.27v4.61Zm25.12-3.94c-.48.12-1.15.24-1.94.36-1.33.25-1.93.55-1.93,1a.73.73,0,0,0,.36.61,2.56,2.56,0,0,0,1.09.18,3.11,3.11,0,0,0,1.88-.42,1.34,1.34,0,0,0,.6-1.28v-.3c0-.06,0-.12-.06-.12Zm.49,3.94-.31-.85a9.49,9.49,0,0,1-2.12.85,8.81,8.81,0,0,1-2.6.3A6.91,6.91,0,0,1,60.33,52,2.29,2.29,0,0,1,59.18,50a2.08,2.08,0,0,1,1.15-2,16.49,16.49,0,0,1,4.48-.91c.3,0,.67-.06,1.15-.06,1.64-.06,2.42-.37,2.42-.79a.6.6,0,0,0-.42-.61,4.6,4.6,0,0,0-1.45-.12,3.16,3.16,0,0,0-1.21.19.79.79,0,0,0-.49.66H59.72a2.63,2.63,0,0,1,1.82-2.24,12.82,12.82,0,0,1,5.15-.79,14.34,14.34,0,0,1,3,.25,7.09,7.09,0,0,1,2.12.54,3.47,3.47,0,0,1,1.34.91,2.9,2.9,0,0,1,.36,1.57v4.85a.87.87,0,0,0,.12.42,1.22,1.22,0,0,0,.42.36v.25ZM87.7,47.8H93a4.65,4.65,0,0,1-2.42,3.7,11.88,11.88,0,0,1-6,1.27A11.16,11.16,0,0,1,78,51.07a5.14,5.14,0,0,1-2.36-4.54,5.44,5.44,0,0,1,2.3-4.66,11.67,11.67,0,0,1,6.6-1.69,11.88,11.88,0,0,1,6,1.27A4.68,4.68,0,0,1,93,45.08H87.51a1.7,1.7,0,0,0-.84-1.39,4,4,0,0,0-2.12-.49,3,3,0,0,0-3.33,3.33A3.33,3.33,0,0,0,82.07,49a3.8,3.8,0,0,0,2.6.85,3.7,3.7,0,0,0,2.12-.54,2.21,2.21,0,0,0,.91-1.46Zm15.86.73c-.49.12-1.15.24-2,.36-1.27.25-1.94.55-1.94,1,0,.25.12.43.43.61a2.53,2.53,0,0,0,1.09.18,3.18,3.18,0,0,0,1.87-.42,1.45,1.45,0,0,0,.61-1.28.45.45,0,0,0-.06-.3v-.12Zm.48,3.94-.3-.85a9.07,9.07,0,0,1-2.18.85,8.85,8.85,0,0,1-2.6.3A6.47,6.47,0,0,1,95.57,52,2.35,2.35,0,0,1,94.36,50a2.13,2.13,0,0,1,1.21-2,16.4,16.4,0,0,1,4.48-.91c.24,0,.66-.06,1.09-.06,1.63-.06,2.48-.37,2.48-.79a.68.68,0,0,0-.42-.61,4.67,4.67,0,0,0-1.46-.12,2.81,2.81,0,0,0-1.21.19.86.86,0,0,0-.54.66H95a2.45,2.45,0,0,1,1.82-2.24,12.57,12.57,0,0,1,5.14-.79,14.5,14.5,0,0,1,3,.25,7.09,7.09,0,0,1,2.12.54,3.08,3.08,0,0,1,1.27.91,2.89,2.89,0,0,1,.37,1.57v4.85a.54.54,0,0,0,.18.42c.06.18.24.24.42.36v.25Zm7.27,0V43.63h4.78v1.63a3,3,0,0,1,1.46-1.39,6.22,6.22,0,0,1,2.54-.42h.48V47a1.66,1.66,0,0,0-.54-.06h-.49a4.47,4.47,0,0,0-2.3.42,1.55,1.55,0,0,0-.78,1.51v3.64Zm24.58,0h-4.6V51.38a5,5,0,0,1-1.88,1,7.55,7.55,0,0,1-2.42.36,6.09,6.09,0,0,1-4-1.27,4.26,4.26,0,0,1-1.57-3.45A4.16,4.16,0,0,1,123,44.72a5.82,5.82,0,0,1,4-1.34,7.86,7.86,0,0,1,2.12.31,4.49,4.49,0,0,1,1.69.91V40.54h5.09V52.47Zm-7.14-2.3a2.27,2.27,0,0,0,1.57-.55,2,2,0,0,0,.54-1.51,1.82,1.82,0,0,0-.54-1.46,2.57,2.57,0,0,0-3.15,0,1.82,1.82,0,0,0-.54,1.46,2,2,0,0,0,.54,1.51,2.18,2.18,0,0,0,1.58.55Z"/><path class="cls-2" d="M45,72.63h61.88a25.77,25.77,0,0,0,23.85-16h-2.9a23,23,0,0,1-21,13.44H45A23.09,23.09,0,0,1,24,56.58H21.16A25.69,25.69,0,0,0,45,72.63Zm85.73-35.18a25.77,25.77,0,0,0-23.85-16H45a25.69,25.69,0,0,0-23.79,16H24A23.09,23.09,0,0,1,45,24h61.88a23,23,0,0,1,21,13.44Z"/><path class="cls-3" d="M76.13,14.26a32.83,32.83,0,0,1,31.24,23.19H44.77A32.87,32.87,0,0,1,76.13,14.26Zm31.24,42.32a32.72,32.72,0,0,1-62.6,0Z"/></g></g></svg>