<svg xmlns="http://www.w3.org/2000/svg" viewBox="0 0 150 93.75"><defs><style>.cls-1{fill:#f9f9f9;}.cls-2{fill:#2e3191;}.cls-3{fill:#fff;}.cls-4{fill:#231f20;}</style></defs><title>diners</title><g id="Layer_2" data-name="Layer 2"><g id="Layer_1-2" data-name="Layer 1"><rect class="cls-1" width="150" height="93.75" rx="5"/><path class="cls-2" d="M88.75,48.59a18.75,18.75,0,0,0,0-37.49H64.53a18.75,18.75,0,1,0,0,37.49Z"/><path class="cls-3" d="M64.53,11.71A18.15,18.15,0,1,1,46.38,29.86,18.18,18.18,0,0,1,64.53,11.71Zm3.64,6.86V41.13a11.85,11.85,0,0,0,0-22.56Zm-7,22.65V18.48a11.87,11.87,0,0,0,0,22.74Z"/><path class="cls-4" d="M56.28,74.5,58.86,74c.09,0,.21.07.16.2l-.83,3.17a13.43,13.43,0,0,1,1.93-2.76A1.56,1.56,0,0,1,61.18,74c.81.07.7,1.21.36,1.57a1.14,1.14,0,0,1-.7.41.75.75,0,0,1-.34-.09.5.5,0,0,1-.24-.32c0-.11,0-.16-.07-.2s-.13-.05-.16,0a4.87,4.87,0,0,0-.6.72,12,12,0,0,0-1.29,2.29c-.2.47-.38.88-.54,1.37-.2.7-.33,1.1-.38,1.24L57,82.12H55.62l1.51-5.57a4.65,4.65,0,0,0,.16-1.26.37.37,0,0,0-.11-.27.66.66,0,0,0-.41-.14,1.5,1.5,0,0,0-.54-.07Z"/><path class="cls-4" d="M48,71.8l-.58,2.3h1.37l-.13.58H47.3L46,80a3.33,3.33,0,0,0-.13.9.29.29,0,0,0,.07.22.2.2,0,0,0,.15.09c.14,0,.3-.11.52-.31a7.52,7.52,0,0,0,.74-.9l.27.22A6.25,6.25,0,0,1,46.2,81.9a1.91,1.91,0,0,1-1,.34A.74.74,0,0,1,44.6,82a.93.93,0,0,1-.22-.63,7.07,7.07,0,0,1,.25-1.49l1.3-5.19H44.81l.06-.36a4.13,4.13,0,0,0,1.56-.81,6.45,6.45,0,0,0,1.26-1.71Z"/><path class="cls-4" d="M82.75,72l-.59,2.29h1.37l-.15.56H82l-1.35,5.31a2.54,2.54,0,0,0-.14.9.46.46,0,0,0,.07.25.23.23,0,0,0,.14.07,1,1,0,0,0,.53-.32,4.14,4.14,0,0,0,.75-.9l.27.23a6.6,6.6,0,0,1-1.38,1.71,1.87,1.87,0,0,1-1,.31.69.69,0,0,1-.58-.25.92.92,0,0,1-.21-.63A6.18,6.18,0,0,1,79.35,80l1.31-5.17-1.15,0,.09-.35a4.26,4.26,0,0,0,1.53-.79A6,6,0,0,0,82.39,72Z"/><path class="cls-4" d="M33.2,81.74l-.09.34H28.39l.11-.34a2.88,2.88,0,0,0,.86-.13,1.16,1.16,0,0,0,.51-.43,5.47,5.47,0,0,0,.54-1.51l1.87-7.35a7.18,7.18,0,0,0,.23-1.4.6.6,0,0,0-.41-.63,2.62,2.62,0,0,0-.83-.09l.11-.33,4.66,0-.09.34a2.19,2.19,0,0,0-.88.09,1.17,1.17,0,0,0-.54.51,7.32,7.32,0,0,0-.5,1.49l-1.88,7.35A6.77,6.77,0,0,0,31.88,81a.73.73,0,0,0,.11.38.81.81,0,0,0,.31.25A5.83,5.83,0,0,0,33.2,81.74Z"/><path class="cls-4" d="M115.65,80.05c-.05.16-.65,1.94.45,1.2a3.78,3.78,0,0,0,1-1.06l.24.27a5.42,5.42,0,0,1-1.46,1.6c-.56.42-1.69.56-1.8-.43a4.5,4.5,0,0,1,.18-1.42l2.23-8.32c.16-.63.29-1.46-.43-1.55a3.05,3.05,0,0,0-.49,0l0-.34,2.61-.45c.13,0,.22,0,.18.2Z"/><path class="cls-4" d="M86.59,70.16a.76.76,0,0,1,.59.27.85.85,0,0,1,.22.61,1,1,0,0,1-.22.63.85.85,0,0,1-.59.24.88.88,0,0,1-.58-.24.91.91,0,0,1-.23-.63.81.81,0,0,1,.23-.61A.76.76,0,0,1,86.59,70.16Z"/><path class="cls-4" d="M49.46,54.82a.85.85,0,0,1,.63.27.92.92,0,0,1,.25.65.91.91,0,0,1-.27.66.78.78,0,0,1-.61.27.83.83,0,0,1-.6-.27.9.9,0,0,1-.25-.66.84.84,0,0,1,.25-.65A.76.76,0,0,1,49.46,54.82Z"/><path class="cls-4" d="M86.84,74.1l-1.75,6.13c-.3,1,.06,1.51.76.86a4,4,0,0,0,.88-1l.27.21c-.36.65-1.53,2.22-2.66,2.16a.7.7,0,0,1-.51-.23.73.73,0,0,1-.25-.54,4.49,4.49,0,0,1,.11-1.19l1.08-3.89.23-1c.09-.43-.09-.79-.48-.81-.18,0-.27,0-.54,0l0-.35,2.61-.59C86.79,73.87,86.88,73.94,86.84,74.1Z"/><path class="cls-4" d="M49.73,59.16,48,65.62c-.3,1,0,1.57.78.9a4.56,4.56,0,0,0,.88-1.13l.27.23c-.36.67-1.44,2.38-2.72,2.31a.67.67,0,0,1-.56-.27,1,1,0,0,1-.23-.56,4.07,4.07,0,0,1,.14-1.24l1.08-4.11.24-1c.12-.45-.09-.9-.49-.93a2.33,2.33,0,0,0-.56,0l0-.39,2.74-.54C49.73,58.91,49.78,59,49.73,59.16Z"/><path class="cls-4" d="M54.19,59.21l-1,3.78c.56-1.2,3-4.37,4.66-4,1,.27.63,2.09.42,2.76l-1,3.92c-.34,1.26.22,1.21.49,1a8.73,8.73,0,0,0,1-1.44l.24.18c-.31.81-1.39,2.74-2.7,2.58a.76.76,0,0,1-.47-.24.93.93,0,0,1-.2-.57,8.49,8.49,0,0,1,.29-1.57l1-3.85c.18-.69.27-1.5-.2-1.55-2.07.09-3.76,4.07-4.3,6l-.45,1.58H50.52l1.64-6,.25-1.14c.13-.57-.32-.81-.77-.77l-.36,0,.07-.36c.86-.13,1.85-.36,2.7-.49C54.12,59.05,54.23,59.07,54.19,59.21Z"/><path class="cls-4" d="M38.56,74.1l-1,3.23c.54-1.14,2.77-4,4.34-3.55,1,.25.63,2,.47,2.65l-1,3.76c-.34,1.21.27,1.08.47.9A7.59,7.59,0,0,0,43,79.74l.25.18c-.31.76-1.48,2.61-2.72,2.45a.74.74,0,0,1-.47-.2,1,1,0,0,1-.18-.56,5.21,5.21,0,0,1,.24-1.51l1-3.67c.11-.42.32-1.48-.16-1.48-2,.22-3.8,4.09-4.22,5.69l-.41,1.53-1.3,0,1.57-5.71.23-1c.11-.54-.34-.7-.77-.72h-.31l0-.33,2.68-.45C38.47,73.89,38.6,73.94,38.56,74.1Z"/><path class="cls-4" d="M64.87,74.1l-1,3.23c.54-1.14,2.79-4,4.34-3.55,1,.25.65,2,.47,2.65l-1,3.76c-.32,1.21.27,1.08.49.9a9.3,9.3,0,0,0,1-1.31l.25.16c-.32.79-1.42,2.59-2.66,2.43a.66.66,0,0,1-.47-.2,1,1,0,0,1-.18-.56,5,5,0,0,1,.22-1.51l1-3.67c.11-.42.2-1.39-.25-1.39-2,.22-3.71,4-4.11,5.6l-.41,1.53-1.32,0,1.57-5.71.23-1c.11-.54-.34-.7-.77-.72H62l0-.33,2.7-.45C64.78,73.89,64.91,73.94,64.87,74.1Z"/><path class="cls-4" d="M100,74l-1,3.26c.54-1.15,2.79-4,4.34-3.57,1,.24.65,2,.47,2.65l-1,3.75c-.31,1.22.27,1.08.5.9a7,7,0,0,0,1-1.3l.25.18c-.31.76-1.42,2.56-2.65,2.41a.67.67,0,0,1-.47-.21.79.79,0,0,1-.18-.56,4.6,4.6,0,0,1,.22-1.48l1-3.69c.09-.41.18-1.37-.27-1.37-2,.22-3.71,4-4.12,5.6l-.4,1.5-1.33,0,1.58-5.71.22-1c.11-.56-.34-.72-.76-.72h-.3l0-.34c.83-.13,1.86-.33,2.7-.47C99.88,73.78,100,73.83,100,74Z"/><path class="cls-4" d="M67.59,59.63a21.62,21.62,0,0,0,2.65-.6c.16,0,.25.06.23.18l-.88,3.44a9.44,9.44,0,0,1,2.34-3.33c.72-.49,1.51,0,1.3,1s-1.26,1.57-1.71.25c-1.43,1.39-2.56,4.65-2.92,6l-.29,1.22H67l1.55-6c.2-.74.49-1.94-1-1.82Z"/><path class="cls-4" d="M78.47,59.09,78.11,62H77.8c0-1-.34-2.41-1.6-2.41a1.09,1.09,0,0,0-.87,1.67l.53.88c.63,1,1.06,1.75,1.31,2.2a2.62,2.62,0,0,1-2.27,3.78,5.26,5.26,0,0,1-1.8-.41c-.18-.06-.34.07-.47.36h-.32l.38-3.1H73c0,1.19.4,2.63,1.82,2.63,1.44-.27,1.44-1.82.61-3.1l-1.15-1.8a2.5,2.5,0,0,1,.07-2.93c1.28-1.23,2.38-.6,3.42-.27a.35.35,0,0,0,.38-.36Z"/><path class="cls-4" d="M93.77,54.66l-.68,3.85h-.36c-.07-1.71-.13-3.37-2.54-3.4a3.73,3.73,0,0,0-2.65,1.2,9.89,9.89,0,0,0-2.7,6.81,4.4,4.4,0,0,0,1,3c2,2.34,4.88.81,6.2-1.26l.34.39a5.64,5.64,0,0,1-4.84,2.83A4.76,4.76,0,0,1,85,67.42a4.23,4.23,0,0,1-1.62-1.87,6,6,0,0,1-.56-2.61,9,9,0,0,1,1.08-4.11c1.1-2.16,3.42-4.28,6.16-4.32a5.8,5.8,0,0,1,2.65.58.8.8,0,0,0,.7-.43Z"/><path class="cls-4" d="M98.11,54.39,95.3,65.57c-.5,2,.76,1.24,1.55-.11l.27.29c-.92,1.62-2.39,2.7-3.13,2-.29-.27-.36-.84-.07-2l2.3-9c.29-1.17.49-1.93-1-1.84V54.6l2.59-.48C98.06,54.08,98.17,54.19,98.11,54.39Z"/><path class="cls-4" d="M105.82,59.18l-1.48,6a4.32,4.32,0,0,0-.21,1.22.36.36,0,0,0,.07.24c.41.61,1.15-.54,1.6-1.21l.25.22a7,7,0,0,1-1.53,2c-.36.3-1.22.57-1.58.14a1,1,0,0,1-.22-.63,14.4,14.4,0,0,1,.76-3.53c.11-.38.14-.38-.07,0-.76,1.41-2.51,4.43-4.22,4.4-.77,0-1-.76-1-1.3a8,8,0,0,1,.34-2l.72-3c.18-.72.2-.88.23-1,.06-.5-.12-.93-1-.93l0-.33a18.53,18.53,0,0,0,2.41-.45c.25-.05.43,0,.36.27l-1.44,5.57c-.07.25-.52,1.89.18,2,.86.11,2.7-2.3,3.51-4.3a29.82,29.82,0,0,0,1.08-3.4Z"/><path class="cls-4" d="M50.47,78a5,5,0,0,0,1.6-.45,3.61,3.61,0,0,0,1.4-1.17,2.22,2.22,0,0,0,.42-1.24c0-.24.07-.45-.06-.6a.55.55,0,0,0-.5-.25c-.52,0-1,.38-1.57,1A5.34,5.34,0,0,0,50.47,78Zm-.18.61c0,.29,0,.54,0,.74A2.54,2.54,0,0,0,50.61,81a1.81,1.81,0,0,0,1.33.49,2.55,2.55,0,0,0,1.08-.4,7.69,7.69,0,0,0,1.26-1l.24.25c-1.23,1.53-2.25,2-3.37,2a2.07,2.07,0,0,1-1.82-.81,3.49,3.49,0,0,1-.54-1.91,6,6,0,0,1,.72-2.72,5.64,5.64,0,0,1,1.91-2.18,4.19,4.19,0,0,1,2.25-.85,1.69,1.69,0,0,1,1.21.38,1.35,1.35,0,0,1,.38,1,2.21,2.21,0,0,1-.51,1.44,4.75,4.75,0,0,1-2,1.44A9.73,9.73,0,0,1,50.29,78.64Z"/><path class="cls-4" d="M74.76,74.43a1.68,1.68,0,0,0-.9.54,5.62,5.62,0,0,0-1.39,2.25,8.4,8.4,0,0,0-.68,2.7,1.92,1.92,0,0,0,.14,1,.62.62,0,0,0,.58.36c.57,0,1.26-.58,1.85-1.62a8.92,8.92,0,0,0,1.5-4,1.32,1.32,0,0,0-.26-1.06.79.79,0,0,0-.84-.25Zm3-.31L76.11,80l-.13.72c-.14.65.33.56.72.25a2.47,2.47,0,0,0,.72-.93l.27.23a7.13,7.13,0,0,1-1.29,1.53c-.69.63-1.77.92-1.77-.29a9.48,9.48,0,0,1,.4-2.07,12.51,12.51,0,0,1-1.93,2.4,2.23,2.23,0,0,1-1.4.5,1.14,1.14,0,0,1-1-.5,2.36,2.36,0,0,1-.36-1.53,7,7,0,0,1,.74-3A7.39,7.39,0,0,1,73,74.72,3.09,3.09,0,0,1,74.83,74c.34,0,.68,0,.88.16s.42.23.54.67l.2-.69Z"/><path class="cls-4" d="M110,74.43a1.74,1.74,0,0,0-.92.52,6.1,6.1,0,0,0-1.39,2.27,8.14,8.14,0,0,0-.68,2.7,2.06,2.06,0,0,0,.14,1,.63.63,0,0,0,.58.38c.56,0,1.26-.6,1.85-1.62a9,9,0,0,0,1.5-4,1.3,1.3,0,0,0-.24-1.06.76.76,0,0,0-.84-.25Zm3-.33L111.33,80l-.13.7c-.12.67.36.58.74.27a3.5,3.5,0,0,0,.72-.93l.27.23a7.38,7.38,0,0,1-1.31,1.53c-.67.63-1.77.92-1.77-.29a8.34,8.34,0,0,1,.42-2.09,13.55,13.55,0,0,1-2,2.42,2.14,2.14,0,0,1-1.37.48,1.21,1.21,0,0,1-1-.5,2.51,2.51,0,0,1-.36-1.51,6.77,6.77,0,0,1,.77-3,7.39,7.39,0,0,1,1.89-2.61,3.13,3.13,0,0,1,1.84-.76,1.3,1.3,0,0,1,.88.18c.2.18.4.23.52.67l.22-.71Z"/><path class="cls-4" d="M94.24,76.28a2.47,2.47,0,0,0-.45-1.4,1.29,1.29,0,0,0-1-.47c-.77,0-1.55.52-2.34,1.87a7.42,7.42,0,0,0-1.17,3.84,2.07,2.07,0,0,0,.4,1.31,1.21,1.21,0,0,0,1.06.49A3.2,3.2,0,0,0,93.14,80a8.34,8.34,0,0,0,1.1-3.75Zm1.42.54a5.64,5.64,0,0,1-.86,2.87,7.66,7.66,0,0,1-2,2,4.59,4.59,0,0,1-2.47.7,2.26,2.26,0,0,1-1.8-.77,3,3,0,0,1-.7-2A5.89,5.89,0,0,1,88.57,77a6.12,6.12,0,0,1,2.12-2.3A3.87,3.87,0,0,1,92.78,74a2.86,2.86,0,0,1,2.11.76A3.19,3.19,0,0,1,95.66,76.82Z"/><path class="cls-4" d="M111.22,54.3l-1.62,6.48A4.05,4.05,0,0,1,112.43,59a2,2,0,0,1,1.51.78,2.88,2.88,0,0,1,.58,1.92c0,3-2.4,6.27-5.17,6.29-1.6,0-2.7-.27-2.29-2l2.16-9.13c.24-1.1.4-1.82-.86-1.66v-.36A10,10,0,0,0,111,54.1c.13,0,.34,0,.27.2ZM109.6,67.57a2.54,2.54,0,0,0,1.42-.72c1.39-1.17,2.74-4.88,1.57-6.32a1.14,1.14,0,0,0-.9-.49c-1.42,0-2.2,1.66-2.45,2.7l-.79,3.08C108.14,67,108.11,67.53,109.6,67.57Z"/><path class="cls-4" d="M35.68,55.16l.09-.36h3.71a9.06,9.06,0,0,1,3.78.63,4.17,4.17,0,0,1,1.79,1.87,7,7,0,0,1,.3,5.26C44.25,66,41,67.8,37.54,67.8h-4.9l.11-.36a2.75,2.75,0,0,0,.9-.14,1.22,1.22,0,0,0,.5-.45,8.1,8.1,0,0,0,.54-1.62l2-7.84a6.3,6.3,0,0,0,.25-1.47.76.76,0,0,0-.23-.56,1.35,1.35,0,0,0-.85-.2Zm2.9,1.3-2.21,8.48c-.18.72-.24,1.17-.27,1.35-.09.36.27.59.57.65,5.62,1.4,8.81-6.81,6.07-10.52A3.21,3.21,0,0,0,40,55.32C39.1,55.29,38.8,55.56,38.58,56.46Z"/><path class="cls-4" d="M61.52,63.84c-.61,4.27,2.38,3.8,4.11,1.64l.16.29c-1.1,1.6-2.16,2.25-3.37,2.25a2.19,2.19,0,0,1-1.89-.87,3.17,3.17,0,0,1-.56-2,6.7,6.7,0,0,1,.76-3,6.46,6.46,0,0,1,1.93-2.34A4.2,4.2,0,0,1,65.07,59c1.48,0,2,1.35,1,2.68-1.23,1.58-2.74,1.94-4.58,2.16Zm0-.47a6.27,6.27,0,0,0,2-.54,2.87,2.87,0,0,0,1.61-2.45c0-1.76-1.57-.61-2.27.13A6,6,0,0,0,61.56,63.37Z"/><path class="cls-4" d="M120.39,69.62a1.68,1.68,0,0,1,0,3.35,1.68,1.68,0,0,1,0-3.35Zm0,.22a1.46,1.46,0,1,0,1.38,1.44,1.42,1.42,0,0,0-1.38-1.44Zm.68,2.41-.36-.9a.51.51,0,0,0,.36-.49.57.57,0,0,0-.23-.43.66.66,0,0,0-.42-.11h-.72v1.93h.24v-.83h.52l.36.83Zm-1.13-1h.45a.34.34,0,0,0,.32-.12.32.32,0,0,0,.11-.24.3.3,0,0,0-.13-.27.39.39,0,0,0-.27-.07h-.48Z"/></g></g></svg>