<svg xmlns="http://www.w3.org/2000/svg" xmlns:xlink="http://www.w3.org/1999/xlink" viewBox="0 0 150 93.75"><defs><style>.cls-1{fill:#f9f9f9;}.cls-2{fill:#f58220;}.cls-3{fill:url(#radial-gradient);}.cls-4{fill:#001722;}.cls-5{fill:#231f20;}</style><radialGradient id="radial-gradient" cx="70.41" cy="-439.2" r="7.39" gradientTransform="translate(6.42 486.08)" gradientUnits="userSpaceOnUse"><stop offset="0.01" stop-color="#ffeee0"/><stop offset="0.11" stop-color="#fee9d7"/><stop offset="0.28" stop-color="#fddbbf"/><stop offset="0.49" stop-color="#fbc597"/><stop offset="0.74" stop-color="#f8a560"/><stop offset="1" stop-color="#f48120"/></radialGradient></defs><title>discover</title><g id="Layer_2" data-name="Layer 2"><g id="Layer_1-2" data-name="Layer 1"><rect class="cls-1" width="150" height="93.75" rx="5"/><path class="cls-2" d="M41.23,93.75H145a5,5,0,0,0,5-5V53.65C140,60,102.49,81.73,41.23,93.75Z"/><path class="cls-3" d="M76.83,39.57a7.35,7.35,0,0,0-7.48,7.22,7.48,7.48,0,1,0,7.48-7.22Z"/><path class="cls-4" d="M34.34,39.84h-4v14h4a7.28,7.28,0,0,0,5-1.62,7,7,0,0,0,2.55-5.39C41.87,42.72,38.77,39.84,34.34,39.84Zm3.2,10.54a5.2,5.2,0,0,1-3.75,1.12h-.74V42.21h.74a5.09,5.09,0,0,1,3.75,1.14,4.72,4.72,0,0,1,1.51,3.49A4.84,4.84,0,0,1,37.54,50.38Z"/><rect class="cls-4" x="43.13" y="39.84" width="2.74" height="14.04"/><path class="cls-4" d="M52.57,45.22c-1.65-.61-2.13-1-2.13-1.77s.86-1.55,2-1.55A2.84,2.84,0,0,1,54.69,43l1.43-1.87A6.16,6.16,0,0,0,52,39.6a4.12,4.12,0,0,0-4.37,4c0,1.94.88,2.93,3.45,3.85a10.82,10.82,0,0,1,1.89.8,1.69,1.69,0,0,1,.83,1.45,2,2,0,0,1-2.13,2,3.23,3.23,0,0,1-3-1.87L46.9,51.54a5.46,5.46,0,0,0,4.86,2.67A4.52,4.52,0,0,0,56.6,49.6C56.6,47.37,55.68,46.36,52.57,45.22Z"/><path class="cls-4" d="M57.47,46.86a7.27,7.27,0,0,0,7.41,7.33,7.5,7.5,0,0,0,3.43-.82V50.15A4.41,4.41,0,0,1,65,51.68a4.59,4.59,0,0,1-4.71-4.84A4.67,4.67,0,0,1,64.88,42a4.61,4.61,0,0,1,3.43,1.58V40.38a7,7,0,0,0-3.37-.86A7.37,7.37,0,0,0,57.47,46.86Z"/><polygon class="cls-4" points="90.49 49.27 86.75 39.84 83.76 39.84 89.71 54.23 91.19 54.23 97.25 39.84 94.28 39.84 90.49 49.27"/><polygon class="cls-4" points="98.49 53.87 106.26 53.87 106.26 51.49 101.23 51.49 101.23 47.7 106.07 47.7 106.07 45.33 101.23 45.33 101.23 42.21 106.26 42.21 106.26 39.84 98.49 39.84 98.49 53.87"/><path class="cls-4" d="M117.1,44c0-2.63-1.81-4.14-5-4.14h-4.06v14h2.74V48.23h.35L115,53.87h3.37L113.9,48A3.74,3.74,0,0,0,117.1,44Zm-5.5,2.32h-.79V42h.84c1.7,0,2.63.72,2.63,2.09S113.35,46.3,111.6,46.3Z"/><path class="cls-5" d="M119,40.88c0-.24-.17-.38-.47-.38h-.4v1.24h.3v-.48l.34.48h.37l-.41-.51A.35.35,0,0,0,119,40.88Zm-.52.17h-.05v-.32h.05c.15,0,.22.05.22.16S118.66,41.05,118.51,41.05Z"/><path class="cls-5" d="M118.62,40a1.08,1.08,0,1,0,1.07,1.08A1.08,1.08,0,0,0,118.62,40Zm0,2a.89.89,0,1,1,.85-.88A.86.86,0,0,1,118.62,42Z"/></g></g></svg>