<svg xmlns="http://www.w3.org/2000/svg" xmlns:xlink="http://www.w3.org/1999/xlink" viewBox="0 0 200 125.067"><defs><linearGradient id="linear-gradient" x1="32.024" y1="62.436" x2="73.993" y2="62.436" gradientUnits="userSpaceOnUse"><stop offset="0" stop-color="#183177"/><stop offset="1" stop-color="#036cb7"/></linearGradient><linearGradient id="linear-gradient-2" x1="79.1" y1="62.533" x2="121.071" y2="62.533" gradientUnits="userSpaceOnUse"><stop offset="0" stop-color="#7a292f"/><stop offset="1" stop-color="#e20238"/></linearGradient><linearGradient id="linear-gradient-3" x1="126.01" y1="62.483" x2="167.976" y2="62.483" gradientUnits="userSpaceOnUse"><stop offset="0" stop-color="#01843f"/><stop offset="1" stop-color="#4fae34"/></linearGradient><linearGradient id="linear-gradient-4" x1="134.406" y1="68.967" x2="148.9" y2="68.967" xlink:href="#linear-gradient-3"/><linearGradient id="linear-gradient-5" x1="134.406" y1="55.34" x2="147.69" y2="55.34" xlink:href="#linear-gradient-3"/></defs><title>JCB-card-transparent</title><g id="Layer_2" data-name="Layer 2"><g id="Layer_1-2" data-name="Layer 1"><path d="M6.667,0H193.333A6.6,6.6,0,0,1,200,6.667V118.4a6.6,6.6,0,0,1-6.667,6.667H6.667A6.6,6.6,0,0,1,0,118.4V6.667A6.6,6.6,0,0,1,6.667,0Z" fill="none"/><path d="M73.984,12.267a2.439,2.439,0,0,1,0-.32c.044-.339-.1-.437-.433-.435-3.055.018-6.109.021-9.163.028H52.85c-1.595,0-3.192-.056-4.784.016a13.364,13.364,0,0,0-4.585.96,3.827,3.827,0,0,0-1.248.463c-6.591,3.214-10.064,8.5-10.1,15.825-.077,13.672-.022,27.344-.022,41.016a1.819,1.819,0,0,1,0,.256.469.469,0,0,0,.323.543,35.831,35.831,0,0,0,11.061,3.437,17.4,17.4,0,0,0,3.237.23,9.376,9.376,0,0,0,6.131-1.846,7.124,7.124,0,0,0,2.935-5.908c.073-6.278.039-12.556.047-18.835,0-1.607,0-1.6,1.638-1.609q3.457-.017,6.914-.046c1.812.115,3.626.037,5.438.036.477,0,.6.116.6.6-.019,6.47-.01,12.94-.017,19.41a13.728,13.728,0,0,1-.59,3.973,11.58,11.58,0,0,1-3.765,5.573,18.252,18.252,0,0,1-5.107,2.579,35.519,35.519,0,0,1-8.358,1.429c-.745.024-1.489.058-2.233.069a80.952,80.952,0,0,1-9.05-.458c-.664-.092-1.328-.186-1.993-.276-2.2-.3-4.376-.712-6.535-1.22-.753-.178-.752-.186-.752.584v34.269a2.845,2.845,0,0,1,0,.32c-.03.287.053.418.381.416,2.967-.019,5.935-.023,8.9-.031H52.594a50.526,50.526,0,0,0,6.569-.122,15.906,15.906,0,0,0,7.149-2.691,14.458,14.458,0,0,0,3.895-3.514,17.046,17.046,0,0,0,3.781-11.095Q73.976,54.079,73.984,12.267Z" fill="url(#linear-gradient)"/><path d="M120.679,11.512c-2.734.018-5.469.021-8.2.029H100.934c-1.96,0-3.92-.03-5.879.013a8.386,8.386,0,0,0-2.455.363,16.082,16.082,0,0,0-8.644,4.76,15.759,15.759,0,0,0-4.8,11.11c-.111,7.516-.037,15.034-.039,22.552,0,.095-.042.216.144.293a21.564,21.564,0,0,1,4.884-2.919c.924-.309,1.842-.64,2.775-.921A44.227,44.227,0,0,1,92.6,45.618a79.163,79.163,0,0,1,8.334-.386l3.08.127q4.191.4,8.334,1.145c1.161.259,2.318.535,3.484.768.367.073.483.217.48.587q-.025,3.1,0,6.193c0,.486-.142.477-.5.3a23.377,23.377,0,0,0-3.324-1.446,27.841,27.841,0,0,0-8.472-1.988,18.317,18.317,0,0,0-5.661.168,11.328,11.328,0,0,0-5.888,2.6,8.36,8.36,0,0,0-2.543,3.228,13.571,13.571,0,0,0-.806,8.931,9.473,9.473,0,0,0,3.348,5.578,10.908,10.908,0,0,0,5.9,2.564,17.31,17.31,0,0,0,5.65.113,27.243,27.243,0,0,0,8.477-1.993c1.291-.427,2.5-1.063,3.812-1.62,0,2.346,0,4.621.005,6.9,0,.368-.282.337-.479.384-1.116.27-2.237.517-3.357.772-2.808.456-5.616.915-8.457,1.132l-5.39.148c-2.007-.106-4.017-.182-6.016-.4q-.564-.093-1.128-.184a32.864,32.864,0,0,1-5.242-1.188c-.744-.246-1.48-.511-2.22-.768a20.412,20.412,0,0,1-4.9-3V112.9c0,.107.007.215,0,.321-.019.258.115.327.35.324q2.271-.029,4.543-.046c.4.014.8.043,1.2.041q3.692-.015,7.381-.042,3.015.111,6.028,0c1.8.069,3.594.081,5.392-.006a15.75,15.75,0,0,0,8.612-2.331c.408-.248.836-.467,1.218-.748a16.781,16.781,0,0,0,7.21-14.206q.016-41.985,0-83.968a2.844,2.844,0,0,1,0-.32C121.1,11.624,121,11.51,120.679,11.512Z" fill="url(#linear-gradient-2)"/><path d="M167.967,12.28a2.626,2.626,0,0,1,0-.32c.04-.327-.081-.447-.426-.446q-6.122.026-12.243.027H143.761a15.394,15.394,0,0,0-6.683,1.127,2.229,2.229,0,0,0-.305.076A16.849,16.849,0,0,0,126.12,28.123c-.1,5.849-.025,11.7-.029,17.552a1.093,1.093,0,0,1,0,.128c-.033.283.1.367.372.366q5.379-.022,10.76-.033h6.539c.447.01.9.024,1.343.03,3.407.042,6.835-.244,10.186.656.3.118.589.238.884.353a7.3,7.3,0,0,1,4.761,9.056c-.83,3-3.014,4.629-5.915,5.417-.5.136-1,.227-1.537.345.135.24.3.175.432.19a14.672,14.672,0,0,1,3.427.753,8.529,8.529,0,0,1,5.262,4.545,7.709,7.709,0,0,1-3.6,9.783,16.119,16.119,0,0,1-3.448,1.321,28.6,28.6,0,0,1-5.344.278c-2.066,0-4.132.018-6.2.027h-6.667l-10.5-.03c-.831,0-.832,0-.832.806V112.65c0,.128.009.257,0,.384-.025.285.059.421.385.419q5.475-.027,10.951-.031h6.666c2.594,0,5.187.034,7.779-.016a13.076,13.076,0,0,0,3.76-.626A16.01,16.01,0,0,0,160.6,110.4a17,17,0,0,0,4.565-4.64,17.235,17.235,0,0,0,2.808-9.757Q167.963,54.142,167.967,12.28Z" fill="url(#linear-gradient-3)"/><path d="M134.406,73.057c0,.3.082.407.392.4,1.065-.023,2.129-.02,3.193-.028l6.409-.011c.255-.014.51-.013.762-.044a4.349,4.349,0,0,0,3.719-4.839,4.444,4.444,0,0,0-4.48-4.031h-6.41c-1.064-.008-2.128-.006-3.192-.029-.313-.007-.394.105-.393.4Q134.419,68.969,134.406,73.057Z" fill="url(#linear-gradient-4)"/><path d="M134.8,59.458c.851-.025,1.7-.024,2.554-.034h5.894a4.318,4.318,0,0,0,3.169-1.12,4.082,4.082,0,0,0-3.164-7.04c-1.966-.049-3.932-.061-5.9,0-.851-.011-1.7-.013-2.552-.039-.314-.01-.394.113-.393.41q.015,3.7,0,7.411C134.406,59.338,134.478,59.468,134.8,59.458Z" fill="url(#linear-gradient-5)"/></g></g></svg>