<svg xmlns="http://www.w3.org/2000/svg" viewBox="0 0 150 93.75"><defs><style>.cls-1{fill:#f9f9f9;}.cls-2{fill:#7578b9;}.cls-3{fill:#e51b24;}.cls-4{fill:#00a2e5;}</style></defs><title>maestro</title><g id="Layer_2" data-name="Layer 2"><g id="Layer_1-2" data-name="Layer 1"><rect class="cls-1" width="150" height="93.75" rx="5"/><rect class="cls-2" x="63.34" y="17.07" width="25.11" height="45.12"/><path class="cls-3" d="M64.93,39.64a28.68,28.68,0,0,1,11-22.57,28.7,28.7,0,1,0,0,45.13A28.67,28.67,0,0,1,64.93,39.64Z"/><path class="cls-4" d="M119.58,57.42v-.93H120v-.18H119v.18h.37v.93Zm1.84,0V56.3h-.29l-.33.77-.34-.77h-.29v1.12h.21v-.84l.31.72h.21l.32-.72v.84Z"/><path class="cls-4" d="M122.32,39.64A28.7,28.7,0,0,1,75.89,62.2a28.71,28.71,0,0,0,0-45.13,28.7,28.7,0,0,1,46.43,22.57Z"/><path d="M57.53,82.76V78a2.83,2.83,0,0,0-3-3,3,3,0,0,0-2.67,1.35A2.82,2.82,0,0,0,49.35,75a2.52,2.52,0,0,0-2.23,1.13v-.94H45.47v7.61h1.67V78.54a1.78,1.78,0,0,1,1.86-2c1.1,0,1.66.72,1.66,2v4.23h1.67V78.54a1.79,1.79,0,0,1,1.86-2c1.13,0,1.67.72,1.67,2v4.23ZM66.86,79V75.15H65.21v.93A2.9,2.9,0,0,0,62.8,75a4,4,0,0,0,0,8,2.92,2.92,0,0,0,2.41-1.11v.92h1.65ZM60.7,79A2.3,2.3,0,1,1,63,81.39,2.29,2.29,0,0,1,60.7,79Zm41.59-4a4.15,4.15,0,0,1,1.63.31,3.86,3.86,0,0,1,2.16,2.11,4.23,4.23,0,0,1,0,3.18,3.81,3.81,0,0,1-.86,1.26,4,4,0,0,1-1.3.85,4.58,4.58,0,0,1-3.26,0,4,4,0,0,1-1.3-.85,3.79,3.79,0,0,1-.85-1.26,4.23,4.23,0,0,1,0-3.18,3.8,3.8,0,0,1,2.15-2.11A4.15,4.15,0,0,1,102.29,75Zm0,1.57a2.47,2.47,0,0,0-1,.18,2.15,2.15,0,0,0-.75.5,2.28,2.28,0,0,0-.5.77,2.67,2.67,0,0,0,0,2,2.38,2.38,0,0,0,.5.77,2.29,2.29,0,0,0,.75.5,2.47,2.47,0,0,0,1,.18,2.42,2.42,0,0,0,.94-.18A2.29,2.29,0,0,0,104.5,80a2.81,2.81,0,0,0,0-2,2.16,2.16,0,0,0-.51-.77,2.1,2.1,0,0,0-.76-.5A2.42,2.42,0,0,0,102.29,76.52ZM75.87,79c0-2.37-1.48-4-3.61-4a4,4,0,0,0,.11,8,4.62,4.62,0,0,0,3.12-1.06l-.81-1.23a3.64,3.64,0,0,1-2.22.8,2.12,2.12,0,0,1-2.27-1.87h5.65Q75.87,79.29,75.87,79Zm-5.67-.67a2,2,0,0,1,2-1.85,1.89,1.89,0,0,1,1.92,1.85Zm12.64-1.2a5,5,0,0,0-2.37-.65c-.91,0-1.45.34-1.45.89s.58.66,1.29.75l.78.11c1.66.24,2.66.94,2.66,2.28S82.48,83,80.28,83A5.52,5.52,0,0,1,77,82l.78-1.29a4,4,0,0,0,2.53.79c1.13,0,1.73-.33,1.73-.92,0-.43-.43-.67-1.34-.8l-.78-.11c-1.7-.24-2.62-1-2.62-2.24,0-1.52,1.24-2.44,3.17-2.44a5.64,5.64,0,0,1,3.1.8Zm8-.43H88.09V80.1c0,.77.27,1.28,1.1,1.28A3.17,3.17,0,0,0,90.66,81l.47,1.41a3.83,3.83,0,0,1-2.07.59c-2,0-2.64-1-2.64-2.81V76.66H84.88V75.15h1.54V72.84h1.67v2.31H90.8ZM96.53,75a3.68,3.68,0,0,1,1.18.21l-.51,1.56a2.76,2.76,0,0,0-1-.19c-1.08,0-1.62.7-1.62,2v4.26H92.88V75.15h1.64v.93a2.25,2.25,0,0,1,2-1.12ZM108,81.46a.73.73,0,0,1,.3.06.82.82,0,0,1,.25.16.78.78,0,0,1,.16.24.73.73,0,0,1,.06.3.72.72,0,0,1-.06.29.78.78,0,0,1-.16.24.82.82,0,0,1-.25.16.78.78,0,0,1-.6,0,.72.72,0,0,1-.25-.16.78.78,0,0,1-.16-.24.72.72,0,0,1-.06-.29.73.73,0,0,1,.06-.3.78.78,0,0,1,.16-.24.72.72,0,0,1,.25-.16A.73.73,0,0,1,108,81.46Zm0,1.35a.59.59,0,0,0,.23,0,.7.7,0,0,0,.31-.31.64.64,0,0,0,0-.23.56.56,0,0,0,0-.23.43.43,0,0,0-.13-.19.46.46,0,0,0-.18-.13.68.68,0,0,0-.46,0,.5.5,0,0,0-.19.13.53.53,0,0,0-.13.19.56.56,0,0,0,0,.23.62.62,0,0,0,0,.23.59.59,0,0,0,.13.18.5.5,0,0,0,.19.13A.59.59,0,0,0,108,82.81Zm.05-1a.28.28,0,0,1,.2.06.21.21,0,0,1,.08.17.2.2,0,0,1-.06.14.29.29,0,0,1-.17.07l.23.26h-.18l-.21-.26h-.07v.26h-.15v-.7Zm-.18.13v.19H108l.1,0a.09.09,0,0,0,0-.07s0-.06,0-.07a.17.17,0,0,0-.1,0Z"/></g></g></svg>