<svg xmlns="http://www.w3.org/2000/svg" viewBox="0 0 150 93.75"><defs><style>.cls-1{fill:#f9f9f9;}.cls-2{fill:#010101;}.cls-3{fill:#f16522;}.cls-4{fill:#e41b24;}.cls-5{fill:#f89e1c;}</style></defs><title>mastercard</title><g id="Layer_2" data-name="Layer 2"><g id="Layer_1-2" data-name="Layer 1"><rect class="cls-1" width="150" height="93.75" rx="5"/><path class="cls-2" d="M46.62,81.83V77.09a2.81,2.81,0,0,0-3-3A3,3,0,0,0,41,75.44a2.77,2.77,0,0,0-2.49-1.35,2.49,2.49,0,0,0-2.21,1.12v-.93H34.65v7.55h1.66V77.65a1.77,1.77,0,0,1,1.85-2c1.09,0,1.64.71,1.64,2v4.2h1.66V77.65a1.79,1.79,0,0,1,1.85-2c1.12,0,1.66.71,1.66,2v4.2Zm24.55-7.55H68.48V72H66.82v2.29H65.29v1.5h1.53v3.45c0,1.75.68,2.79,2.63,2.79a3.87,3.87,0,0,0,2-.58L71,80a3,3,0,0,1-1.46.43c-.82,0-1.09-.51-1.09-1.27V75.78h2.69Zm14-.19a2.23,2.23,0,0,0-2,1.11v-.92H81.56v7.55H83.2V77.6c0-1.25.54-1.94,1.61-1.94a2.57,2.57,0,0,1,1,.19l.5-1.55a3.52,3.52,0,0,0-1.16-.21M64,74.88a5.66,5.66,0,0,0-3.08-.79c-1.91,0-3.14.92-3.14,2.42,0,1.23.91,2,2.6,2.23l.78.11c.89.12,1.32.36,1.32.79s-.6.91-1.72.91a4,4,0,0,1-2.51-.79L57.47,81a5.48,5.48,0,0,0,3.27,1c2.18,0,3.45-1,3.45-2.46s-1-2-2.64-2.26l-.78-.11c-.7-.1-1.27-.24-1.27-.74s.53-.89,1.43-.89a4.93,4.93,0,0,1,2.36.65Zm44-.79a2.23,2.23,0,0,0-2,1.11v-.92h-1.63v7.55H106V77.6c0-1.25.54-1.94,1.61-1.94a2.57,2.57,0,0,1,1,.19l.5-1.55a3.52,3.52,0,0,0-1.16-.21m-21.17,4a3.81,3.81,0,0,0,4,4,3.94,3.94,0,0,0,2.72-.9l-.79-1.33a3.3,3.3,0,0,1-2,.68,2.42,2.42,0,0,1,0-4.83,3.36,3.36,0,0,1,2,.68L93.58,75a4,4,0,0,0-2.72-.9,3.82,3.82,0,0,0-4,4m15.39,0V74.28h-1.65v.92a2.86,2.86,0,0,0-2.38-1.11,4,4,0,0,0,0,7.93,2.88,2.88,0,0,0,2.38-1.1v.91h1.65Zm-6.12,0a2.29,2.29,0,1,1,2.29,2.41,2.27,2.27,0,0,1-2.29-2.41m-19.82-4A4,4,0,0,0,76.4,82,4.56,4.56,0,0,0,79.49,81l-.8-1.21a3.66,3.66,0,0,1-2.2.79,2.1,2.1,0,0,1-2.26-1.85h5.61c0-.21,0-.41,0-.63,0-2.36-1.47-4-3.59-4m0,1.47a1.87,1.87,0,0,1,1.91,1.83H74.25a1.93,1.93,0,0,1,2-1.83m41.21,2.5V71.25h-1.65v4a2.86,2.86,0,0,0-2.38-1.11,4,4,0,0,0,0,7.93,2.88,2.88,0,0,0,2.38-1.1v.91h1.65Zm-6.12,0a2.29,2.29,0,1,1,2.29,2.41,2.27,2.27,0,0,1-2.29-2.41m-55.46,0V74.28H54.24v.92a2.87,2.87,0,0,0-2.39-1.11,4,4,0,0,0,0,7.93,2.89,2.89,0,0,0,2.39-1.1v.91h1.64Zm-6.11,0a2.28,2.28,0,1,1,2.29,2.41,2.27,2.27,0,0,1-2.29-2.41m70.42,2.68a.73.73,0,0,1,.3.06.78.78,0,0,1,.24.16.7.7,0,0,1,.17.24.73.73,0,0,1,0,.58.81.81,0,0,1-.17.24.78.78,0,0,1-.24.16.73.73,0,0,1-.3.06.77.77,0,0,1-.3-.06.78.78,0,0,1-.24-.16,1,1,0,0,1-.17-.24.87.87,0,0,1,0-.58.86.86,0,0,1,.17-.24.78.78,0,0,1,.24-.16.77.77,0,0,1,.3-.06m0,1.33a.59.59,0,0,0,.23,0,.59.59,0,0,0,.18-.13.46.46,0,0,0,.13-.18.62.62,0,0,0,0-.23.55.55,0,0,0-.17-.42.57.57,0,0,0-.18-.12.68.68,0,0,0-.46,0,.57.57,0,0,0-.18.12.55.55,0,0,0-.17.42.62.62,0,0,0,0,.23.46.46,0,0,0,.13.18A.59.59,0,0,0,120,82a.59.59,0,0,0,.23,0m0-.93a.33.33,0,0,1,.21.06.22.22,0,0,1,.07.16.18.18,0,0,1-.06.14.26.26,0,0,1-.16.07l.22.26h-.18l-.21-.26h-.06v.26h-.15v-.69Zm-.17.13v.18h.17a.13.13,0,0,0,.09,0,.1.1,0,0,0,0-.14.13.13,0,0,0-.09,0Z"/><rect class="cls-3" x="63.45" y="16.75" width="24.88" height="44.7"/><path class="cls-4" d="M65,39.1A28.41,28.41,0,0,1,75.89,16.75a28.44,28.44,0,1,0,0,44.71A28.41,28.41,0,0,1,65,39.1"/><path class="cls-5" d="M121.89,39.1a28.44,28.44,0,0,1-46,22.36,28.44,28.44,0,0,0,0-44.71,28.43,28.43,0,0,1,46,22.35m-2.71,17.62v-.91h.37v-.19h-.94v.19H119v.91Zm1.82,0v-1.1h-.29l-.33.76-.33-.76h-.29v1.1H120v-.83l.31.72h.21l.31-.72v.83Z"/></g></g></svg>