<svg xmlns="http://www.w3.org/2000/svg" viewBox="0 0 150 93.75"><defs><style>.cls-1{fill:#f9f9f9;}.cls-2{fill:#0066b2;}.cls-3{fill:#f9a533;}</style></defs><title>visa</title><g id="Layer_2" data-name="Layer 2"><g id="Layer_1-2" data-name="Layer 1"><rect class="cls-1" width="150" height="93.75" rx="5"/><polygon class="cls-2" points="66.82 66.16 56.79 66.16 63.06 27.61 73.1 27.61 66.82 66.16"/><path class="cls-2" d="M48.34,27.61,38.77,54.13l-1.13-5.71h0L34.27,31.09s-.41-3.48-4.77-3.48H13.69l-.19.66A37.38,37.38,0,0,1,24,32.67l8.72,33.49H43.18l16-38.55Z"/><path class="cls-2" d="M127.28,66.16h9.22l-8-38.55H120.4a4.62,4.62,0,0,0-4.64,2.88l-15,35.67h10.46l2.1-5.72H126.1Zm-11-13.63,5.27-14.43,3,14.43Z"/><path class="cls-2" d="M101.58,36.88,103,28.61a29,29,0,0,0-9-1.68c-5,0-16.8,2.17-16.8,12.76,0,10,13.88,10.08,13.88,15.31S78.61,59.29,74.5,56L73,64.65a28.06,28.06,0,0,0,11.32,2.18c6.85,0,17.19-3.55,17.19-13.2,0-10-14-11-14-15.31S97.28,34.52,101.58,36.88Z"/><path class="cls-3" d="M37.64,48.42,34.27,31.09s-.41-3.48-4.77-3.48H13.69l-.19.66a38.83,38.83,0,0,1,14.9,7.47A30.08,30.08,0,0,1,37.64,48.42Z"/></g></g></svg>