<svg width="358" height="74" viewBox="0 0 358 74" fill="none" xmlns="http://www.w3.org/2000/svg">
<g clip-path="url(#clip0_132_126)">
<path d="M122.471 46.6092C126.058 46.6092 128.927 45.8908 132.065 43.915L131.078 51.9976C128.12 53.6141 124.713 54.3325 120.499 54.3325C111.712 54.3325 102.478 50.0218 102.478 35.6529C102.478 22.3616 110.099 15.4466 120.589 15.4466C124.354 15.4466 128.03 16.2549 130.63 17.8714L131.885 26.1335C128.837 23.9782 125.609 23.2597 122.382 23.2597C115.209 23.2597 111.175 27.3908 111.175 34.8447C111.085 43.8252 116.375 46.6092 122.471 46.6092ZM199.397 42.9272L193.659 27.5704H185.052L195.273 53.7039H201.997L212.845 27.5704H205.045L199.397 42.9272ZM149.189 26.8519C140.492 26.8519 135.382 32.5995 135.382 40.5922C135.382 48.5849 140.403 54.2427 149.099 54.2427C157.796 54.2427 162.907 48.5849 162.907 40.5024C162.907 32.4199 157.975 26.8519 149.189 26.8519ZM149.189 47.7767C145.872 47.7767 143.451 45.2621 143.451 40.5922C143.451 35.9223 145.782 33.4976 149.189 33.4976C152.596 33.4976 154.927 36.1019 154.927 40.5922C154.927 45.0825 152.596 47.7767 149.189 47.7767ZM181.645 27.1214C179.314 27.4806 177.072 28.6481 175.279 30.8932L173.576 27.5704H167.479V53.7039H175.459V37.5388C177.341 36.6408 179.403 36.0121 181.555 35.6529V27.1214H181.645ZM350.2 27.5704L344.551 44.9029L338.544 27.5704H329.758L340.158 52.716L335.855 63.4927H343.834L358 27.5704H350.2ZM315.234 26.9417C312.185 26.9417 309.227 27.6602 306.806 29.0971L305.461 36.9102C308.061 35.1141 310.93 34.1262 313.889 34.1262C316.848 34.1262 319.089 35.1141 319.627 37.9879C307.882 38.7063 303.668 41.4005 303.668 46.6092C303.668 51.818 307.523 54.1529 312.544 54.1529C316.13 54.1529 318.82 52.8058 320.523 50.8301L321.958 53.7039H327.696V39.1553C327.875 30.1748 322.765 26.9417 315.234 26.9417ZM319.896 47.1481C318.641 48.1359 316.758 48.7646 315.054 48.7646C312.634 48.7646 311.468 47.8665 311.468 45.8908C311.468 43.5558 313.62 42.2087 319.896 41.4903V47.1481ZM233.108 45.2621C231.584 46.25 230.239 46.699 228.715 46.699C226.115 46.699 224.501 45.5316 224.501 41.4903V27.5704H216.521V42.4782C216.521 51.1893 220.197 54.3325 226.384 54.3325C229.163 54.3325 231.584 53.2549 233.825 51.3689L235.529 53.7937H241.177V27.6602H233.198V45.2621H233.108ZM259.557 38.2573L258.212 37.8981C255.253 37.1796 254.715 36.4612 254.715 35.2937C254.715 33.9466 255.612 33.2282 257.943 33.2282C260.453 33.2282 264.04 34.0364 266.371 35.2039L265.743 28.4684C263.771 27.4806 260.812 26.8519 257.943 26.8519C250.95 26.8519 247.363 29.6359 247.363 34.9345C247.363 39.1553 249.605 41.0413 254.626 42.3883L255.881 42.7476C259.198 43.6456 259.826 44.1845 259.826 45.4417C259.826 47.2379 258.571 47.8665 256.15 47.8665C252.653 47.8665 248.977 46.8786 246.646 45.4417L247.274 52.267C249.425 53.5243 252.922 54.1529 256.508 54.1529C263.143 54.1529 267.447 51.4587 267.447 45.7112C267.447 42.1189 265.833 39.8738 259.557 38.2573ZM286.812 16.3447H274.26V53.7039H282.599V44.5437H286.364C295.778 44.5437 301.964 38.4369 301.964 30.1748C301.875 21.6432 295.868 16.3447 286.812 16.3447ZM285.557 37.5388H282.599V23.6189H285.557C290.668 23.6189 293.178 26.1335 293.178 30.7136C293.268 35.2039 290.847 37.5388 285.557 37.5388Z" fill="#1D43FF"/>
<path d="M81.8568 18.949L79.6153 4.49029C74.5049 1.6165 66.7944 0 59.4425 0C45.725 0 34.4283 4.93932 28.3316 15.8956C25.3729 11.8544 20.4418 9.07039 12.3727 11.3155C7.35187 12.7524 4.39319 14.6383 0 18.4102C12.1933 17.3325 15.3313 20.6553 16.6762 27.75C16.6762 27.75 19.0073 50.1116 30.9316 62.8641C37.9249 71.0364 48.6837 74 59.0839 74C67.691 74 74.2359 72.6529 80.2429 69.5097L81.6774 55.5898C75.3118 59.2718 70.1117 60.5291 62.6702 60.5291C50.0286 60.5291 39.0904 54.8714 39.0904 37.0898C39.0904 22.182 47.3388 13.6505 62.2219 13.6505C69.1255 13.5607 75.6704 14.9976 81.8568 18.949Z" fill="black"/>
<path d="M23.4005 34.1262C23.4005 51.7282 36.4007 66.1869 52.8976 67.8034C54.87 68.0728 57.0218 68.2524 59.2632 68.1626C67.0634 67.8932 74.9532 66.4563 80.8705 63.6723L81.6774 55.6796C75.3118 59.3616 70.1117 60.6189 62.6702 60.6189C50.0286 60.6189 39.0904 54.9612 39.0904 37.1796C39.0904 33.6772 39.5387 30.6238 40.4353 27.8398V27.6602C42.9457 8.98058 64.7323 1.5267 79.5257 4.6699C74.4152 1.79612 66.7047 0.179612 59.3529 0.179612C39.6283 -7.45058e-08 25.0143 10.4175 23.4005 34.1262Z" fill="#1D43FF"/>
</g>
<defs>
<clipPath id="clip0_132_126">
<rect width="358" height="74" fill="white"/>
</clipPath>
</defs>
</svg>
