<svg xmlns="http://www.w3.org/2000/svg" viewBox="0 0 241.497 54.649"><title>CorvusPay</title><g id="Layer_2" data-name="Layer 2"><g id="Layer_1-2" data-name="Layer 1"><rect width="241.497" height="54.649" fill="none"/><path d="M40.862,48.489a3.34,3.34,0,0,1-.159,1.066,2.217,2.217,0,0,1-.466.808,2.039,2.039,0,0,1-.757.512,2.781,2.781,0,0,1-1.027.177,2.63,2.63,0,0,1-.5-.043,2.073,2.073,0,0,1-.446-.139,2.966,2.966,0,0,1-.435-.243,5.331,5.331,0,0,1-.461-.355v.557a.108.108,0,0,1-.025.071.169.169,0,0,1-.081.048.782.782,0,0,1-.14.028,2.273,2.273,0,0,1-.426,0,.8.8,0,0,1-.144-.028.129.129,0,0,1-.074-.048.139.139,0,0,1-.019-.071V44.061a.122.122,0,0,1,.022-.071.155.155,0,0,1,.081-.05.709.709,0,0,1,.158-.031,2.479,2.479,0,0,1,.249-.01c.1,0,.189,0,.256.01a.676.676,0,0,1,.156.031.185.185,0,0,1,.081.05.112.112,0,0,1,.025.071v2.731a3.9,3.9,0,0,1,.482-.35,3.065,3.065,0,0,1,.458-.23,2.2,2.2,0,0,1,.448-.129,2.563,2.563,0,0,1,.473-.041,2.511,2.511,0,0,1,1.043.2,1.923,1.923,0,0,1,.7.53,2.118,2.118,0,0,1,.4.777A3.5,3.5,0,0,1,40.862,48.489Zm-1.064.1a3.452,3.452,0,0,0-.066-.679,1.674,1.674,0,0,0-.229-.583,1.25,1.25,0,0,0-.432-.407,1.331,1.331,0,0,0-.67-.155,1.686,1.686,0,0,0-.4.046,1.62,1.62,0,0,0-.394.152,2.883,2.883,0,0,0-.417.274,4.113,4.113,0,0,0-.46.42v1.818a3.953,3.953,0,0,0,.814.641,1.612,1.612,0,0,0,.808.221,1.363,1.363,0,0,0,.664-.152,1.3,1.3,0,0,0,.447-.4,1.72,1.72,0,0,0,.251-.563A2.583,2.583,0,0,0,39.8,48.585Z" fill="#354554"/><path d="M45.024,50.956l-.747,1.676a.271.271,0,0,1-.19.124,1.829,1.829,0,0,1-.464.043,2.056,2.056,0,0,1-.261-.012.434.434,0,0,1-.153-.043.108.108,0,0,1-.059-.081.214.214,0,0,1,.031-.122l.772-1.585a.345.345,0,0,1-.106-.066.255.255,0,0,1-.068-.1l-2-4.357a.428.428,0,0,1-.049-.167.114.114,0,0,1,.049-.1.359.359,0,0,1,.162-.047,2.635,2.635,0,0,1,.3-.013c.124,0,.222,0,.292.007a.758.758,0,0,1,.169.029.171.171,0,0,1,.09.058.618.618,0,0,1,.059.1l1.6,3.657h.019l1.544-3.678a.228.228,0,0,1,.09-.124.478.478,0,0,1,.159-.04,2.6,2.6,0,0,1,.3-.013,2.491,2.491,0,0,1,.286.013.383.383,0,0,1,.165.047.113.113,0,0,1,.053.1.415.415,0,0,1-.037.152Z" fill="#354554"/><path d="M58.662,50.028c0,.055,0,.1-.006.143a.44.44,0,0,1-.022.106.306.306,0,0,1-.04.081.54.54,0,0,1-.087.086,1.839,1.839,0,0,1-.262.155,3.467,3.467,0,0,1-.495.2,4.834,4.834,0,0,1-1.515.236,4.421,4.421,0,0,1-1.417-.213,2.925,2.925,0,0,1-1.077-.628,2.76,2.76,0,0,1-.685-1.026,4.237,4.237,0,0,1,.019-2.859,3.045,3.045,0,0,1,.725-1.082,3.129,3.129,0,0,1,1.118-.676,4.465,4.465,0,0,1,2.119-.18,5.046,5.046,0,0,1,.611.134,3.208,3.208,0,0,1,.5.187,1.712,1.712,0,0,1,.3.175.635.635,0,0,1,.11.1.327.327,0,0,1,.04.084.608.608,0,0,1,.025.114,1.15,1.15,0,0,1,.01.157,1.04,1.04,0,0,1-.013.172.4.4,0,0,1-.038.119.177.177,0,0,1-.059.071.154.154,0,0,1-.085.023.52.52,0,0,1-.244-.1,4.182,4.182,0,0,0-.4-.218,3.677,3.677,0,0,0-.6-.218,3.183,3.183,0,0,0-.848-.1,2.65,2.65,0,0,0-.98.174,2.03,2.03,0,0,0-.754.514,2.368,2.368,0,0,0-.485.829,3.34,3.34,0,0,0-.173,1.116,3.384,3.384,0,0,0,.166,1.1,2.16,2.16,0,0,0,.476.8,1.991,1.991,0,0,0,.761.486,2.949,2.949,0,0,0,1.02.165,3.335,3.335,0,0,0,.842-.1,3.661,3.661,0,0,0,.613-.216c.169-.079.307-.151.416-.215a.562.562,0,0,1,.257-.1.173.173,0,0,1,.075.015.112.112,0,0,1,.05.058.453.453,0,0,1,.028.119A1.692,1.692,0,0,1,58.662,50.028Z" fill="#354554"/><path d="M68.027,50.647a.533.533,0,0,1,.053.179.11.11,0,0,1-.047.1.343.343,0,0,1-.165.046c-.076.007-.179.01-.308.01s-.231,0-.308-.007a.874.874,0,0,1-.174-.026.188.188,0,0,1-.088-.048.387.387,0,0,1-.052-.076l-.691-1.6H62.9l-.66,1.576a.243.243,0,0,1-.05.078.236.236,0,0,1-.09.056.668.668,0,0,1-.168.033c-.073.007-.167.01-.283.01a2.649,2.649,0,0,1-.3-.013.33.33,0,0,1-.162-.048.113.113,0,0,1-.043-.1.527.527,0,0,1,.052-.179l2.7-6.089a.247.247,0,0,1,.065-.091.276.276,0,0,1,.118-.056,1.031,1.031,0,0,1,.2-.028c.081-.005.184-.008.309-.008s.242,0,.33.008a1.127,1.127,0,0,1,.211.028.3.3,0,0,1,.125.058.271.271,0,0,1,.068.094Zm-3.468-5.375h-.006l-1.388,3.267h2.8Z" fill="#354554"/><path d="M76.657,50.824a.128.128,0,0,1-.019.071.14.14,0,0,1-.08.05.82.82,0,0,1-.175.031c-.074.007-.174.01-.3.01-.109,0-.2,0-.265-.01a.7.7,0,0,1-.165-.033.215.215,0,0,1-.1-.064.359.359,0,0,1-.059-.1l-.741-1.545a5.4,5.4,0,0,0-.27-.483,1.609,1.609,0,0,0-.334-.38,1.422,1.422,0,0,0-.454-.249,2,2,0,0,0-.629-.088h-.716v2.791a.1.1,0,0,1-.028.071.2.2,0,0,1-.087.048.968.968,0,0,1-.162.03,2.577,2.577,0,0,1-.517,0,1.041,1.041,0,0,1-.164-.03.177.177,0,0,1-.088-.048.112.112,0,0,1-.025-.071V44.755a.3.3,0,0,1,.128-.276.511.511,0,0,1,.271-.079H73.4c.2,0,.372.005.508.013s.255.018.363.028a3.6,3.6,0,0,1,.826.208,1.981,1.981,0,0,1,.6.359,1.436,1.436,0,0,1,.364.5,1.553,1.553,0,0,1,.122.621,1.525,1.525,0,0,1-.109.59,1.394,1.394,0,0,1-.314.461,2.044,2.044,0,0,1-.492.347,3.577,3.577,0,0,1-.642.249,1.587,1.587,0,0,1,.362.179,1.713,1.713,0,0,1,.3.261,2.393,2.393,0,0,1,.265.35c.083.131.166.28.249.445l.722,1.444c.058.122.1.207.113.256A.4.4,0,0,1,76.657,50.824Zm-1.612-4.6a1.016,1.016,0,0,0-.212-.651,1.238,1.238,0,0,0-.71-.382,2.342,2.342,0,0,0-.351-.051c-.131-.01-.3-.015-.514-.015h-.9v2.209H73.4a2.813,2.813,0,0,0,.732-.084,1.54,1.54,0,0,0,.513-.233.931.931,0,0,0,.3-.352A1.017,1.017,0,0,0,75.045,46.219Z" fill="#354554"/><path d="M86.315,47.582a3.813,3.813,0,0,1-.268,1.486,2.659,2.659,0,0,1-.782,1.054,3.418,3.418,0,0,1-1.26.626,6.726,6.726,0,0,1-1.781.208H80.518a.507.507,0,0,1-.271-.079.3.3,0,0,1-.127-.276V44.755a.3.3,0,0,1,.127-.276.516.516,0,0,1,.271-.079h1.824a6.127,6.127,0,0,1,1.769.221,3.375,3.375,0,0,1,1.21.633,2.671,2.671,0,0,1,.741,1A3.345,3.345,0,0,1,86.315,47.582Zm-1.127.035a2.979,2.979,0,0,0-.162-.99,2.021,2.021,0,0,0-.508-.793,2.377,2.377,0,0,0-.874-.521,4.157,4.157,0,0,0-1.364-.188H81.191v5.1h1.1a4.624,4.624,0,0,0,1.3-.157,2.24,2.24,0,0,0,.884-.481,2,2,0,0,0,.532-.813A3.38,3.38,0,0,0,85.188,47.617Z" fill="#354554"/><path d="M97.019,52.643a.112.112,0,0,1-.022.07.155.155,0,0,1-.077.051.722.722,0,0,1-.15.031c-.062.006-.141.01-.237.01s-.168,0-.23-.01a.7.7,0,0,1-.149-.031.158.158,0,0,1-.078-.051.112.112,0,0,1-.022-.07V43.849a.107.107,0,0,1,.022-.066.158.158,0,0,1,.078-.051.647.647,0,0,1,.149-.03,2.124,2.124,0,0,1,.23-.01,2.2,2.2,0,0,1,.237.01.668.668,0,0,1,.15.03.155.155,0,0,1,.077.051.107.107,0,0,1,.022.066Z" fill="#354554"/><path d="M108.321,50.824a.111.111,0,0,1-.024.071.178.178,0,0,1-.087.048,1.08,1.08,0,0,1-.165.03,2.547,2.547,0,0,1-.514,0,1.039,1.039,0,0,1-.168-.03.169.169,0,0,1-.087-.048.106.106,0,0,1-.025-.071V44.532a.1.1,0,0,1,.028-.07.189.189,0,0,1,.093-.049,1.18,1.18,0,0,1,.168-.03,2.15,2.15,0,0,1,.246-.013,2.279,2.279,0,0,1,.259.013,1.08,1.08,0,0,1,.165.03.171.171,0,0,1,.087.049.108.108,0,0,1,.024.07Z" fill="#354554"/><path d="M117.686,49.076a1.639,1.639,0,0,1-.1.57,1.576,1.576,0,0,1-.271.469,1.816,1.816,0,0,1-.42.365,2.637,2.637,0,0,1-.555.263,3.671,3.671,0,0,1-.659.159,5.373,5.373,0,0,1-.806.054h-2.105a.5.5,0,0,1-.271-.079.3.3,0,0,1-.127-.276V44.755a.3.3,0,0,1,.127-.276.514.514,0,0,1,.271-.079h1.831a5.176,5.176,0,0,1,1.182.112,2.281,2.281,0,0,1,.769.325,1.381,1.381,0,0,1,.464.521,1.529,1.529,0,0,1,.156.7,1.435,1.435,0,0,1-.069.446,1.345,1.345,0,0,1-.2.393,1.452,1.452,0,0,1-.336.321,1.884,1.884,0,0,1-.464.233,2.271,2.271,0,0,1,.616.185,1.829,1.829,0,0,1,.5.342,1.544,1.544,0,0,1,.34.486A1.489,1.489,0,0,1,117.686,49.076Zm-1.612-2.933a1.1,1.1,0,0,0-.081-.43.807.807,0,0,0-.255-.327,1.218,1.218,0,0,0-.453-.205,3.07,3.07,0,0,0-.739-.071H113.44v2.123h1.217a2.09,2.09,0,0,0,.671-.089,1.25,1.25,0,0,0,.423-.238.889.889,0,0,0,.245-.35A1.126,1.126,0,0,0,116.074,46.143Zm.485,2.984a1.122,1.122,0,0,0-.114-.517,1.035,1.035,0,0,0-.336-.375,1.622,1.622,0,0,0-.553-.23,3.738,3.738,0,0,0-.836-.079h-1.28v2.31h1.554a2.575,2.575,0,0,0,.639-.07,1.577,1.577,0,0,0,.482-.211,1.009,1.009,0,0,0,.326-.347A.953.953,0,0,0,116.559,49.127Z" fill="#354554"/><path d="M127.132,50.647a.527.527,0,0,1,.052.179.11.11,0,0,1-.046.1.343.343,0,0,1-.165.046c-.077.007-.18.01-.308.01s-.232,0-.308-.007a.874.874,0,0,1-.175-.026.184.184,0,0,1-.087-.048.389.389,0,0,1-.053-.076l-.691-1.6H122l-.66,1.576a.261.261,0,0,1-.05.078.24.24,0,0,1-.091.056.668.668,0,0,1-.168.033c-.072.007-.167.01-.283.01a2.661,2.661,0,0,1-.3-.013.329.329,0,0,1-.161-.048.114.114,0,0,1-.044-.1.533.533,0,0,1,.053-.179l2.7-6.089a.249.249,0,0,1,.066-.091.265.265,0,0,1,.118-.056,1.019,1.019,0,0,1,.2-.028c.081-.005.184-.008.308-.008s.243,0,.33.008a1.139,1.139,0,0,1,.212.028.292.292,0,0,1,.124.058.259.259,0,0,1,.068.094Zm-3.468-5.375h-.007l-1.388,3.267h2.8Z" fill="#354554"/><path d="M136.478,50.6a.33.33,0,0,1-.042.172.352.352,0,0,1-.11.117.478.478,0,0,1-.151.066.733.733,0,0,1-.167.02h-.354a1.33,1.33,0,0,1-.293-.028.726.726,0,0,1-.239-.1,1.156,1.156,0,0,1-.225-.2,2.621,2.621,0,0,1-.239-.325L132.2,46.589q-.193-.288-.388-.606c-.131-.21-.252-.416-.365-.615h-.012q.012.364.018.745t.007.755v3.956a.105.105,0,0,1-.027.068.168.168,0,0,1-.088.051,1.08,1.08,0,0,1-.165.03,2.036,2.036,0,0,1-.259.013,2.064,2.064,0,0,1-.26-.013.939.939,0,0,1-.16-.03.17.17,0,0,1-.086-.051.109.109,0,0,1-.026-.068V44.775a.311.311,0,0,1,.141-.288.58.58,0,0,1,.309-.087h.526a1.6,1.6,0,0,1,.312.026.743.743,0,0,1,.225.083.857.857,0,0,1,.193.162,2.2,2.2,0,0,1,.195.262l1.89,2.877c.116.175.228.347.337.514s.212.332.313.494.2.322.3.478.2.315.291.474h.006q-.012-.4-.015-.833c0-.289,0-.566,0-.833V44.547a.1.1,0,0,1,.026-.065.219.219,0,0,1,.089-.054.659.659,0,0,1,.164-.032c.068-.007.156-.011.266-.011s.18,0,.25.011a.631.631,0,0,1,.164.032.222.222,0,0,1,.085.054.1.1,0,0,1,.027.065Z" fill="#354554"/><path d="M147.675,52.643a.119.119,0,0,1-.022.07.163.163,0,0,1-.078.051.708.708,0,0,1-.15.031c-.062.006-.141.01-.236.01s-.168,0-.23-.01a.694.694,0,0,1-.15-.031.163.163,0,0,1-.078-.051.118.118,0,0,1-.021-.07V43.849a.113.113,0,0,1,.021-.066.163.163,0,0,1,.078-.051.645.645,0,0,1,.15-.03,2.111,2.111,0,0,1,.23-.01,2.194,2.194,0,0,1,.236.01.657.657,0,0,1,.15.03.163.163,0,0,1,.078.051.114.114,0,0,1,.022.066Z" fill="#354554"/><path d="M165.619,50.763a.249.249,0,0,1-.074.114.335.335,0,0,1-.138.066,1.292,1.292,0,0,1-.214.033c-.085.007-.19.01-.315.01s-.237,0-.327-.01a1.322,1.322,0,0,1-.221-.033.279.279,0,0,1-.13-.066.29.29,0,0,1-.069-.114l-1.687-4.949h-.012l-1.557,4.949a.233.233,0,0,1-.062.114.28.28,0,0,1-.125.066,1.149,1.149,0,0,1-.208.033c-.085.007-.194.01-.327.01s-.251,0-.342-.01a1.315,1.315,0,0,1-.224-.033.306.306,0,0,1-.134-.066.23.23,0,0,1-.066-.114l-2.129-6.053a.766.766,0,0,1-.041-.183.111.111,0,0,1,.05-.1.376.376,0,0,1,.172-.046c.078-.006.184-.01.317-.01s.231,0,.305.008a.669.669,0,0,1,.171.028.138.138,0,0,1,.081.056.275.275,0,0,1,.034.091l1.812,5.491h.006l1.719-5.481a.33.33,0,0,1,.046-.094.176.176,0,0,1,.091-.058.872.872,0,0,1,.177-.031c.077-.006.178-.01.3-.01s.209,0,.277.01a.854.854,0,0,1,.165.031.168.168,0,0,1,.09.058.306.306,0,0,1,.047.094l1.849,5.481h.013l1.774-5.486a.893.893,0,0,1,.037-.089.129.129,0,0,1,.078-.058A.792.792,0,0,1,167,44.38c.073-.006.169-.01.29-.01a2.78,2.78,0,0,1,.295.013.339.339,0,0,1,.159.048.11.11,0,0,1,.047.1.986.986,0,0,1-.034.183Z" fill="#354554"/><path d="M176.615,50.647a.533.533,0,0,1,.053.179.113.113,0,0,1-.047.1.343.343,0,0,1-.165.046c-.076.007-.179.01-.308.01s-.231,0-.308-.007a.874.874,0,0,1-.174-.026.188.188,0,0,1-.088-.048.387.387,0,0,1-.052-.076l-.691-1.6h-3.35l-.66,1.576a.243.243,0,0,1-.05.078.236.236,0,0,1-.09.056.668.668,0,0,1-.168.033c-.073.007-.167.01-.283.01a2.649,2.649,0,0,1-.3-.013.33.33,0,0,1-.162-.048.113.113,0,0,1-.043-.1.527.527,0,0,1,.052-.179l2.7-6.089a.247.247,0,0,1,.065-.091.276.276,0,0,1,.118-.056,1.031,1.031,0,0,1,.2-.028c.081-.005.184-.008.308-.008s.243,0,.33.008a1.139,1.139,0,0,1,.212.028.287.287,0,0,1,.124.058.261.261,0,0,1,.069.094Zm-3.468-5.375h-.006l-1.388,3.267h2.8Z" fill="#354554"/><path d="M184.05,50.576a.892.892,0,0,1-.013.169.366.366,0,0,1-.04.117.189.189,0,0,1-.069.071.192.192,0,0,1-.1.023h-3.561a.5.5,0,0,1-.271-.079.3.3,0,0,1-.128-.276V44.532a.109.109,0,0,1,.025-.07.17.17,0,0,1,.088-.049,1.039,1.039,0,0,1,.168-.03,2.537,2.537,0,0,1,.513,0,1.035,1.035,0,0,1,.165.03.166.166,0,0,1,.087.049.1.1,0,0,1,.025.07V50.2h2.889a.192.192,0,0,1,.1.023.2.2,0,0,1,.069.066.3.3,0,0,1,.04.113A.953.953,0,0,1,184.05,50.576Z" fill="#354554"/><path d="M191.323,50.576a.892.892,0,0,1-.013.169.366.366,0,0,1-.04.117.189.189,0,0,1-.069.071.192.192,0,0,1-.1.023h-3.561a.5.5,0,0,1-.271-.079.3.3,0,0,1-.128-.276V44.532a.109.109,0,0,1,.025-.07.17.17,0,0,1,.088-.049,1.044,1.044,0,0,1,.167-.03,2.3,2.3,0,0,1,.256-.013,2.273,2.273,0,0,1,.258.013,1.035,1.035,0,0,1,.165.03.166.166,0,0,1,.087.049.1.1,0,0,1,.025.07V50.2h2.889a.192.192,0,0,1,.1.023.2.2,0,0,1,.069.066.3.3,0,0,1,.04.113A.953.953,0,0,1,191.323,50.576Z" fill="#354554"/><path d="M198.9,50.6a.823.823,0,0,1-.013.159.307.307,0,0,1-.043.115.184.184,0,0,1-.162.086h-3.866a.5.5,0,0,1-.271-.079.3.3,0,0,1-.128-.276V44.755a.3.3,0,0,1,.128-.276.511.511,0,0,1,.271-.079h3.822a.2.2,0,0,1,.091.021.153.153,0,0,1,.065.066.443.443,0,0,1,.04.114.737.737,0,0,1,.016.17.689.689,0,0,1-.016.159.414.414,0,0,1-.04.112.164.164,0,0,1-.065.063.209.209,0,0,1-.091.02h-3.15v2.057h2.7a.183.183,0,0,1,.09.023.207.207,0,0,1,.069.063.287.287,0,0,1,.04.111.921.921,0,0,1,.013.167.806.806,0,0,1-.013.158.28.28,0,0,1-.04.106.159.159,0,0,1-.069.058.219.219,0,0,1-.09.018h-2.7v2.345h3.194a.194.194,0,0,1,.162.084.269.269,0,0,1,.043.111A.9.9,0,0,1,198.9,50.6Z" fill="#354554"/><path d="M207.606,44.775a.891.891,0,0,1-.013.167.315.315,0,0,1-.04.115.176.176,0,0,1-.068.063.209.209,0,0,1-.091.02h-2.266v5.684a.106.106,0,0,1-.025.071.173.173,0,0,1-.087.048,1.057,1.057,0,0,1-.165.03,2.068,2.068,0,0,1-.259.013,2.047,2.047,0,0,1-.254-.013,1.076,1.076,0,0,1-.169-.03.178.178,0,0,1-.087-.048.112.112,0,0,1-.025-.071V45.14h-2.266a.2.2,0,0,1-.09-.02.153.153,0,0,1-.066-.063.413.413,0,0,1-.04-.115.794.794,0,0,1-.016-.167.851.851,0,0,1,.016-.169.446.446,0,0,1,.04-.119.155.155,0,0,1,.066-.066.193.193,0,0,1,.09-.021h5.6a.2.2,0,0,1,.091.021.178.178,0,0,1,.068.066.339.339,0,0,1,.04.119A.952.952,0,0,1,207.606,44.775Z" fill="#354554"/><path d="M187.366,15.557a11.349,11.349,0,0,1-.748,4.1,8.543,8.543,0,0,1-2.157,3.252,14.484,14.484,0,0,1-1.9,1.494,11.651,11.651,0,0,1-2.281,1.16,15.519,15.519,0,0,1-2.713.746,18.279,18.279,0,0,1-3.282.27h-4.45v10.09h-8.492V5.819h13.124a22.806,22.806,0,0,1,5.054.487,12.723,12.723,0,0,1,3.846,1.544,8.014,8.014,0,0,1,2.954,3.1A9.61,9.61,0,0,1,187.366,15.557Zm-8.72.187a3.74,3.74,0,0,0-.68-2.249A3.507,3.507,0,0,0,176.33,12.2a7.594,7.594,0,0,0-2.3-.549q-1.1-.072-2.985-.074h-1.2V20.82h.591c.8,0,1.557-.006,2.269-.02a13.471,13.471,0,0,0,1.863-.146,6.541,6.541,0,0,0,1.443-.4,3.876,3.876,0,0,0,1.167-.672,4.1,4.1,0,0,0,1.172-1.6A6.663,6.663,0,0,0,178.646,15.744Z" fill="#89b13f"/><path d="M237.441,13.4,224.567,45.209h-8.538l3.861-9.1L210.535,13.4h8.355l5.359,14.588L229.266,13.4Z" fill="#89b13f"/><path d="M207.524,14.738q-3.007-2-9.593-2a33.361,33.361,0,0,0-5.314.425,16.514,16.514,0,0,0-2.855.736l-.907,5.32h1.453a26.477,26.477,0,0,1,2.855-.9,13.891,13.891,0,0,1,3.292-.466,11.37,11.37,0,0,1,4.666.736,2.685,2.685,0,0,1,1.555,2.661v.124q-3.451.207-6.447.582a18.387,18.387,0,0,0-5.156,1.325,7.639,7.639,0,0,0-3.269,2.529A7.063,7.063,0,0,0,186.669,30a6.819,6.819,0,0,0,2.236,5.223,7.962,7.962,0,0,0,5.62,2.071,12.45,12.45,0,0,0,2.828-.25,12.09,12.09,0,0,0,2.076-.725,8.994,8.994,0,0,0,1.737-.994c.432-.332.92-.7,1.465-1.118v2.465h7.9V20.841A6.825,6.825,0,0,0,207.524,14.738ZM202.631,30.6a6.665,6.665,0,0,1-1.976,1.221,5.749,5.749,0,0,1-2.134.436,5.386,5.386,0,0,1-2.849-.611,2.455,2.455,0,0,1-.966-2.249,2.659,2.659,0,0,1,.58-1.792A3.461,3.461,0,0,1,196.91,26.6a12.106,12.106,0,0,1,2.451-.526c.834-.092,1.922-.2,3.27-.324Z" fill="#89b13f"/><path d="M58.914,24.892q0,5.738-3.441,9.043t-9.728,3.307q-6.244,0-9.707-3.307t-3.463-9.043q0-5.8,3.463-9.087t9.707-3.285q6.267,0,9.717,3.307T58.914,24.892Zm-8.15.04a13.4,13.4,0,0,0-.376-3.45,6.1,6.1,0,0,0-1.032-2.206,3.826,3.826,0,0,0-1.589-1.212,5.584,5.584,0,0,0-2.022-.341,5.857,5.857,0,0,0-1.931.3,3.724,3.724,0,0,0-1.589,1.149,6.034,6.034,0,0,0-1.089,2.216,12.953,12.953,0,0,0-.409,3.544,12.638,12.638,0,0,0,.385,3.449,6.35,6.35,0,0,0,1,2.105A3.722,3.722,0,0,0,43.7,31.667a5.757,5.757,0,0,0,2.113.374,5.466,5.466,0,0,0,1.942-.374,3.555,3.555,0,0,0,1.577-1.12A6.162,6.162,0,0,0,50.4,28.405,13.04,13.04,0,0,0,50.764,24.932Z" fill="#354554"/><path d="M104.6,13.2l-9.15,23.269H86.774L77.692,13.2h8.357l5.221,15.4,5.154-15.4Z" fill="#354554"/><path d="M130.512,36.465h-7.948V33.9a21.809,21.809,0,0,1-3.792,2.394,9.516,9.516,0,0,1-4.109.819,7.857,7.857,0,0,1-5.915-2.187q-2.121-2.185-2.123-6.579V13.2h7.992V24.737q0,1.8.1,2.943a5.509,5.509,0,0,0,.488,1.927,2.393,2.393,0,0,0,1.123,1.1,4.911,4.911,0,0,0,2.123.374,6.568,6.568,0,0,0,1.987-.374,8.783,8.783,0,0,0,2.123-1.015V13.2h7.948Z" fill="#354554"/><path d="M153.421,25.038a8.844,8.844,0,0,0-4.167-2.374,19.813,19.813,0,0,0-2.556-.59q-1.326-.216-2.348-.445a7.385,7.385,0,0,1-2.566-.893,1.483,1.483,0,0,1-.592-1.243c0-.593.4-1.071,1.193-1.429a7.07,7.07,0,0,1,2.918-.538,11.93,11.93,0,0,1,2.533.268,13.453,13.453,0,0,1,2.236.684,18.584,18.584,0,0,1,1.724.84c.243.133.451.253.64.364h1.291V14.21a19.833,19.833,0,0,0-3.792-1.17,23.263,23.263,0,0,0-4.928-.487,18.9,18.9,0,0,0-5.051.62,12.4,12.4,0,0,0-3.758,1.678,7.72,7.72,0,0,0-2.3,2.457,5.831,5.831,0,0,0-.783,2.932,6.278,6.278,0,0,0,1.51,4.384,9.382,9.382,0,0,0,4.506,2.516,21.656,21.656,0,0,0,2.451.549c.925.16,1.688.309,2.295.446a7.011,7.011,0,0,1,2.293.788,1.4,1.4,0,0,1,.591,1.221q0,1.035-1.283,1.513a8.482,8.482,0,0,1-2.963.478,12.781,12.781,0,0,1-3.032-.343,16.121,16.121,0,0,1-2.508-.819,11.664,11.664,0,0,1-2.022-.994c-.288-.189-.552-.364-.8-.534H133v5.8a21.244,21.244,0,0,0,4.143,1.306,24.5,24.5,0,0,0,5.325.559,20.371,20.371,0,0,0,5.3-.6,12.893,12.893,0,0,0,3.849-1.7,7.245,7.245,0,0,0,2.384-2.5,6.227,6.227,0,0,0,.84-3.12A5.946,5.946,0,0,0,153.421,25.038Z" fill="#354554"/><path d="M76.765,19.943h1.344l-2.7-6.7-1.018.258a10.208,10.208,0,0,0-2.009.819,15.01,15.01,0,0,0-1.76,1.109c-.643.462-1.147.847-1.51,1.15V13.246H61.161v23.27h7.947V20.935a27.109,27.109,0,0,1,2.669-.788,11.131,11.131,0,0,1,2.623-.331c.694,0,1.332.023,1.905.071C76.479,19.9,76.616,19.923,76.765,19.943Z" fill="#354554"/><path d="M4.864,19.372a15.7,15.7,0,0,0-.2,5.565A16.823,16.823,0,0,0,19.314,39.174a17.438,17.438,0,0,0,13.76-4.057l.032-.027-.035-.036c-1.98-1.963-3.9-3.91-5.714-5.785l-.062-.06-.087.065a8.812,8.812,0,0,1-8.987,1.33,8.234,8.234,0,0,1-4.185-3.68,8.362,8.362,0,0,1-.408-7.584,8.515,8.515,0,0,1,4.345-4.323,16.9,16.9,0,0,0-1.849-.143q-.15,0-.3,0c-.322,0-.643.01-.957.032a15.924,15.924,0,0,0-9.722,4.052A.722.722,0,0,0,4.864,19.372Z" fill="#89b13f"/><path d="M19.155,6.554a17.039,17.039,0,0,0-13.212,9.38,19.141,19.141,0,0,1,9.662-2.974c.133,0,.266,0,.4,0a19.366,19.366,0,0,1,11.012,3.579l.022.016.059-.059c1.8-1.852,3.73-3.824,5.708-5.785.034-.034.06-.062.08-.085-.024-.024-.056-.054-.1-.088A17.4,17.4,0,0,0,19.155,6.554Z" fill="#354554"/></g></g></svg>