<svg xmlns="http://www.w3.org/2000/svg" xmlns:xlink="http://www.w3.org/1999/xlink" viewBox="0 0 102 79.5"><defs><clipPath id="clip-path"><path d="M79.733,32.913A23.433,23.433,0,0,1,89,34.83V3.035H11v69H62.145A23.5,23.5,0,0,1,79.733,32.913Z" fill="none"/></clipPath></defs><g id="Layer_2" data-name="Layer 2"><g id="Layer_1-2" data-name="Layer 1"><rect width="102" height="79.5" fill="none"/><g clip-path="url(#clip-path)"><path d="M46.093,29.037c9.911-.018,19.822.006,29.733-.084a3.918,3.918,0,0,1,4.011,4.026c-.144,11.331-.2,22.663-.278,33.994a3.745,3.745,0,0,1-4.037,3.952q-29.733.056-59.466.108A3.721,3.721,0,0,1,12,66.971c.081-11.276.184-22.552.23-33.827a4,4,0,0,1,4.131-4.084C26.27,29.115,36.182,29.055,46.093,29.037Z" fill="#637280"/><path d="M81.822,9.118,16.837,27.3c-1.617-2.963-.643-5.671,2.461-6.528C31.931,17.285,44.545,13.73,57.166,10.2l19.012-5.32c2.724-.762,4.588.273,5.3,2.943C81.585,8.221,81.69,8.621,81.822,9.118Z" fill="#637280"/><path d="M82.058,45.728c0-.44,0-.743.007-1.046q.048-6.6.095-13.192A5,5,0,0,0,76.9,26.24q-12.623.014-25.247.044l-.974,0-.028-.177,33.565-9.394c.759,2.637,1.5,5.035,2.059,7.759a122.97,122.97,0,0,0,4.094,14.335c.882,2.621-.145,4.617-2.74,5.354C85.819,44.677,84.008,45.18,82.058,45.728Z" fill="#637280"/><path d="M51.272,36.533l.01-1.365a4.235,4.235,0,0,1,.956.335.589.589,0,0,1,.015.57A4.839,4.839,0,0,1,51.272,36.533Z" fill="#637280"/><path d="M72.3,37.687l.017-2.424c.623-.139,1.273-.154,1.524.474a2.126,2.126,0,0,1-.037,1.476C73.551,37.8,72.927,37.812,72.3,37.687Z" fill="#637280"/><path d="M69.73,35.233c.481-.042,1.059-.147,1.053.505,0,.266-.539.531-.832.8l-.229-.183Z" fill="#637280"/><path d="M42.107,63a1.593,1.593,0,0,1-.077.567,3.658,3.658,0,0,1-.5.593c-.2-.2-.5-.36-.564-.591a2.3,2.3,0,0,1,0-1.137c.062-.239.355-.421.544-.628a3.978,3.978,0,0,1,.533.628A1.468,1.468,0,0,1,42.107,63Z" fill="#637280"/><path d="M44.433,63.011c0,.139.049.308-.014.412a8.209,8.209,0,0,1-.555.744,2.817,2.817,0,0,1-.557-.722,1.459,1.459,0,0,1,.009-.9,3.025,3.025,0,0,1,.546-.737,5.687,5.687,0,0,1,.563.713C44.5,62.643,44.435,62.844,44.433,63.011Z" fill="#637280"/><g opacity="0.7"><path d="M19.921,54.125a4.915,4.915,0,0,1-.057.807,1.871,1.871,0,0,1-.212.613,1.411,1.411,0,0,1-.5.521,1.323,1.323,0,0,1-.687.183A1.306,1.306,0,0,1,17.682,56a1.5,1.5,0,0,1-.52-.681,2.5,2.5,0,0,1-.13-.526,4.319,4.319,0,0,1-.042-.623,5.891,5.891,0,0,1,.046-.778,2.555,2.555,0,0,1,.143-.6,1.278,1.278,0,0,1,1.259-.843,1.437,1.437,0,0,1,.536.095,1.225,1.225,0,0,1,.422.281,1.6,1.6,0,0,1,.308.457A3.275,3.275,0,0,1,19.921,54.125Zm-.784-.057a4.754,4.754,0,0,0-.063-.857,1.053,1.053,0,0,0-.212-.5.517.517,0,0,0-.412-.17.529.529,0,0,0-.525.381,3.462,3.462,0,0,0-.148,1.172,5.03,5.03,0,0,0,.063.882,1.106,1.106,0,0,0,.212.52.553.553,0,0,0,.816-.007,1.139,1.139,0,0,0,.209-.524A5.346,5.346,0,0,0,19.137,54.068Z" fill="#fff"/><path d="M23.552,54.125a4.915,4.915,0,0,1-.057.807,1.894,1.894,0,0,1-.212.613,1.411,1.411,0,0,1-.5.521A1.369,1.369,0,0,1,21.312,56a1.507,1.507,0,0,1-.52-.681,2.5,2.5,0,0,1-.13-.526,4.325,4.325,0,0,1-.041-.623,5.891,5.891,0,0,1,.046-.778,2.555,2.555,0,0,1,.143-.6,1.276,1.276,0,0,1,1.259-.843,1.428,1.428,0,0,1,.535.095,1.215,1.215,0,0,1,.422.281,1.6,1.6,0,0,1,.308.457A3.273,3.273,0,0,1,23.552,54.125Zm-.784-.057a4.848,4.848,0,0,0-.063-.857,1.053,1.053,0,0,0-.212-.5.517.517,0,0,0-.412-.17.53.53,0,0,0-.526.381,3.467,3.467,0,0,0-.147,1.172,5.03,5.03,0,0,0,.063.882,1.1,1.1,0,0,0,.212.52.552.552,0,0,0,.815-.007,1.128,1.128,0,0,0,.209-.524A5.226,5.226,0,0,0,22.768,54.068Z" fill="#fff"/><path d="M27.182,54.125a4.915,4.915,0,0,1-.057.807,1.894,1.894,0,0,1-.212.613,1.411,1.411,0,0,1-.5.521,1.323,1.323,0,0,1-.687.183,1.309,1.309,0,0,1-.78-.246,1.507,1.507,0,0,1-.52-.681,2.5,2.5,0,0,1-.13-.526,4.319,4.319,0,0,1-.042-.623A6.067,6.067,0,0,1,24.3,53.4a2.66,2.66,0,0,1,.143-.6,1.279,1.279,0,0,1,1.26-.843,1.428,1.428,0,0,1,.535.095,1.215,1.215,0,0,1,.422.281,1.6,1.6,0,0,1,.308.457A3.273,3.273,0,0,1,27.182,54.125Zm-.785-.057a4.754,4.754,0,0,0-.063-.857,1.053,1.053,0,0,0-.211-.5.519.519,0,0,0-.413-.17.529.529,0,0,0-.525.381,3.467,3.467,0,0,0-.147,1.172,5.03,5.03,0,0,0,.063.882,1.106,1.106,0,0,0,.211.52.553.553,0,0,0,.816-.007,1.128,1.128,0,0,0,.209-.524A5.346,5.346,0,0,0,26.4,54.068Z" fill="#fff"/><path d="M30.812,54.125a4.915,4.915,0,0,1-.057.807,1.894,1.894,0,0,1-.212.613,1.411,1.411,0,0,1-.5.521A1.369,1.369,0,0,1,28.572,56a1.5,1.5,0,0,1-.519-.681,2.5,2.5,0,0,1-.131-.526,4.474,4.474,0,0,1-.041-.623,5.891,5.891,0,0,1,.046-.778,2.555,2.555,0,0,1,.143-.6,1.278,1.278,0,0,1,1.259-.843,1.428,1.428,0,0,1,.535.095,1.219,1.219,0,0,1,.423.281,1.6,1.6,0,0,1,.307.457A3.273,3.273,0,0,1,30.812,54.125Zm-.784-.057a4.848,4.848,0,0,0-.063-.857,1.053,1.053,0,0,0-.212-.5.517.517,0,0,0-.412-.17.531.531,0,0,0-.526.381,3.467,3.467,0,0,0-.147,1.172,5.03,5.03,0,0,0,.063.882,1.1,1.1,0,0,0,.212.52.552.552,0,0,0,.815-.007,1.128,1.128,0,0,0,.209-.524A5.226,5.226,0,0,0,30.028,54.068Z" fill="#fff"/><path d="M36.054,54.125a4.915,4.915,0,0,1-.057.807,1.894,1.894,0,0,1-.212.613,1.411,1.411,0,0,1-.5.521A1.369,1.369,0,0,1,33.814,56a1.5,1.5,0,0,1-.519-.681,2.439,2.439,0,0,1-.13-.526,4.319,4.319,0,0,1-.042-.623,5.891,5.891,0,0,1,.046-.778,2.555,2.555,0,0,1,.143-.6,1.278,1.278,0,0,1,1.259-.843,1.428,1.428,0,0,1,.535.095,1.219,1.219,0,0,1,.423.281,1.6,1.6,0,0,1,.307.457A3.273,3.273,0,0,1,36.054,54.125Zm-.784-.057a4.754,4.754,0,0,0-.063-.857,1.053,1.053,0,0,0-.212-.5.517.517,0,0,0-.412-.17.529.529,0,0,0-.525.381,3.436,3.436,0,0,0-.148,1.172,5.03,5.03,0,0,0,.063.882,1.1,1.1,0,0,0,.212.52A.552.552,0,0,0,35,55.485a1.128,1.128,0,0,0,.209-.524A5.226,5.226,0,0,0,35.27,54.068Z" fill="#fff"/><path d="M39.685,54.125a4.8,4.8,0,0,1-.058.807,1.87,1.87,0,0,1-.211.613,1.411,1.411,0,0,1-.5.521,1.323,1.323,0,0,1-.687.183,1.309,1.309,0,0,1-.78-.246,1.507,1.507,0,0,1-.52-.681,2.5,2.5,0,0,1-.13-.526,4.319,4.319,0,0,1-.042-.623A6.067,6.067,0,0,1,36.8,53.4a2.607,2.607,0,0,1,.143-.6,1.279,1.279,0,0,1,1.26-.843,1.431,1.431,0,0,1,.535.095,1.225,1.225,0,0,1,.422.281,1.6,1.6,0,0,1,.308.457A3.273,3.273,0,0,1,39.685,54.125Zm-.785-.057a4.754,4.754,0,0,0-.063-.857,1.043,1.043,0,0,0-.212-.5.516.516,0,0,0-.412-.17.529.529,0,0,0-.525.381,3.467,3.467,0,0,0-.147,1.172,5.03,5.03,0,0,0,.063.882,1.106,1.106,0,0,0,.211.52.553.553,0,0,0,.816-.007,1.139,1.139,0,0,0,.209-.524A5.346,5.346,0,0,0,38.9,54.068Z" fill="#fff"/><path d="M43.314,54.125a4.915,4.915,0,0,1-.057.807,1.871,1.871,0,0,1-.212.613,1.4,1.4,0,0,1-.5.521,1.329,1.329,0,0,1-.688.183A1.306,1.306,0,0,1,41.075,56a1.5,1.5,0,0,1-.52-.681,2.5,2.5,0,0,1-.13-.526,4.319,4.319,0,0,1-.042-.623,5.891,5.891,0,0,1,.046-.778,2.555,2.555,0,0,1,.143-.6,1.279,1.279,0,0,1,1.26-.843,1.431,1.431,0,0,1,.535.095,1.225,1.225,0,0,1,.422.281,1.6,1.6,0,0,1,.308.457A3.275,3.275,0,0,1,43.314,54.125Zm-.784-.057a4.754,4.754,0,0,0-.063-.857,1.053,1.053,0,0,0-.212-.5.516.516,0,0,0-.412-.17.529.529,0,0,0-.525.381,3.462,3.462,0,0,0-.148,1.172,5.03,5.03,0,0,0,.063.882,1.106,1.106,0,0,0,.212.52.553.553,0,0,0,.816-.007,1.139,1.139,0,0,0,.209-.524A5.346,5.346,0,0,0,42.53,54.068Z" fill="#fff"/><path d="M46.945,54.125a4.915,4.915,0,0,1-.057.807,1.894,1.894,0,0,1-.212.613,1.411,1.411,0,0,1-.5.521A1.369,1.369,0,0,1,44.705,56a1.5,1.5,0,0,1-.519-.681,2.5,2.5,0,0,1-.131-.526,4.325,4.325,0,0,1-.041-.623,5.891,5.891,0,0,1,.046-.778,2.555,2.555,0,0,1,.143-.6,1.276,1.276,0,0,1,1.259-.843,1.428,1.428,0,0,1,.535.095,1.215,1.215,0,0,1,.422.281,1.58,1.58,0,0,1,.308.457A3.273,3.273,0,0,1,46.945,54.125Zm-.784-.057a4.848,4.848,0,0,0-.063-.857,1.053,1.053,0,0,0-.212-.5.517.517,0,0,0-.412-.17.53.53,0,0,0-.526.381A3.467,3.467,0,0,0,44.8,54.09a5.03,5.03,0,0,0,.063.882,1.1,1.1,0,0,0,.212.52.552.552,0,0,0,.815-.007,1.128,1.128,0,0,0,.209-.524A5.226,5.226,0,0,0,46.161,54.068Z" fill="#fff"/><path d="M52.187,54.125a4.915,4.915,0,0,1-.057.807,1.894,1.894,0,0,1-.212.613,1.411,1.411,0,0,1-.5.521A1.369,1.369,0,0,1,49.947,56a1.5,1.5,0,0,1-.519-.681A2.5,2.5,0,0,1,49.3,54.8a4.474,4.474,0,0,1-.041-.623A5.891,5.891,0,0,1,49.3,53.4a2.555,2.555,0,0,1,.143-.6,1.278,1.278,0,0,1,1.259-.843,1.428,1.428,0,0,1,.535.095,1.219,1.219,0,0,1,.423.281,1.6,1.6,0,0,1,.307.457A3.273,3.273,0,0,1,52.187,54.125Zm-.784-.057a4.848,4.848,0,0,0-.063-.857,1.053,1.053,0,0,0-.212-.5.517.517,0,0,0-.412-.17.531.531,0,0,0-.526.381,3.467,3.467,0,0,0-.147,1.172,5.03,5.03,0,0,0,.063.882,1.1,1.1,0,0,0,.212.52.552.552,0,0,0,.815-.007,1.128,1.128,0,0,0,.209-.524A5.226,5.226,0,0,0,51.4,54.068Z" fill="#fff"/><path d="M55.817,54.125a4.915,4.915,0,0,1-.057.807,1.871,1.871,0,0,1-.212.613,1.411,1.411,0,0,1-.5.521,1.323,1.323,0,0,1-.687.183A1.306,1.306,0,0,1,53.578,56a1.5,1.5,0,0,1-.52-.681,2.5,2.5,0,0,1-.13-.526,4.319,4.319,0,0,1-.042-.623,5.891,5.891,0,0,1,.046-.778,2.555,2.555,0,0,1,.143-.6,1.278,1.278,0,0,1,1.259-.843,1.437,1.437,0,0,1,.536.095,1.225,1.225,0,0,1,.422.281,1.6,1.6,0,0,1,.308.457A3.275,3.275,0,0,1,55.817,54.125Zm-.784-.057a4.754,4.754,0,0,0-.063-.857,1.053,1.053,0,0,0-.212-.5.517.517,0,0,0-.412-.17.529.529,0,0,0-.525.381,3.462,3.462,0,0,0-.148,1.172,5.03,5.03,0,0,0,.063.882,1.106,1.106,0,0,0,.212.52.553.553,0,0,0,.816-.007,1.139,1.139,0,0,0,.209-.524A5.346,5.346,0,0,0,55.033,54.068Z" fill="#fff"/></g><g opacity="0.7"><path d="M41.026,62.332a4.915,4.915,0,0,1-.057.807,1.894,1.894,0,0,1-.212.613,1.411,1.411,0,0,1-.5.521,1.369,1.369,0,0,1-1.467-.063,1.493,1.493,0,0,1-.519-.681A2.5,2.5,0,0,1,38.136,63a4.349,4.349,0,0,1-.041-.624,5.891,5.891,0,0,1,.046-.778,2.555,2.555,0,0,1,.143-.6,1.28,1.28,0,0,1,1.259-.843,1.428,1.428,0,0,1,.535.1,1.215,1.215,0,0,1,.422.281,1.58,1.58,0,0,1,.308.457A3.273,3.273,0,0,1,41.026,62.332Zm-.784-.057a4.848,4.848,0,0,0-.063-.857,1.053,1.053,0,0,0-.212-.5.517.517,0,0,0-.412-.17.53.53,0,0,0-.526.381,3.467,3.467,0,0,0-.147,1.172,5.03,5.03,0,0,0,.063.882,1.1,1.1,0,0,0,.212.52.552.552,0,0,0,.815-.007,1.128,1.128,0,0,0,.209-.524A5.226,5.226,0,0,0,40.242,62.275Z" fill="#fff"/><path d="M44.656,62.332a4.915,4.915,0,0,1-.057.807,1.871,1.871,0,0,1-.212.613,1.411,1.411,0,0,1-.5.521,1.323,1.323,0,0,1-.687.183,1.306,1.306,0,0,1-.779-.246,1.5,1.5,0,0,1-.52-.681,2.445,2.445,0,0,1-.13-.525,4.344,4.344,0,0,1-.042-.624,5.891,5.891,0,0,1,.046-.778,2.555,2.555,0,0,1,.143-.6,1.282,1.282,0,0,1,1.259-.843,1.428,1.428,0,0,1,.535.1,1.219,1.219,0,0,1,.423.281,1.6,1.6,0,0,1,.307.457A3.273,3.273,0,0,1,44.656,62.332Zm-.784-.057a4.754,4.754,0,0,0-.063-.857,1.053,1.053,0,0,0-.212-.5.517.517,0,0,0-.412-.17.529.529,0,0,0-.525.381,3.462,3.462,0,0,0-.148,1.172,5.03,5.03,0,0,0,.063.882,1.1,1.1,0,0,0,.212.52.553.553,0,0,0,.816-.007,1.15,1.15,0,0,0,.209-.524A5.346,5.346,0,0,0,43.872,62.275Z" fill="#fff"/><path d="M46.591,60.7l-.8,3.3c-.027.109-.05.195-.07.257a.311.311,0,0,1-.092.148.269.269,0,0,1-.179.053c-.194,0-.292-.084-.292-.252a2.183,2.183,0,0,1,.058-.33l.8-3.3a1.512,1.512,0,0,1,.12-.362.239.239,0,0,1,.224-.1.316.316,0,0,1,.219.068.242.242,0,0,1,.075.188A1.6,1.6,0,0,1,46.591,60.7Z" fill="#fff"/><path d="M50.079,62.332a4.8,4.8,0,0,1-.058.807,1.87,1.87,0,0,1-.211.613,1.411,1.411,0,0,1-.5.521,1.323,1.323,0,0,1-.687.183,1.309,1.309,0,0,1-.78-.246,1.5,1.5,0,0,1-.52-.681,2.505,2.505,0,0,1-.13-.525,4.344,4.344,0,0,1-.042-.624,6.067,6.067,0,0,1,.046-.778,2.607,2.607,0,0,1,.143-.6,1.282,1.282,0,0,1,1.26-.843,1.431,1.431,0,0,1,.535.1,1.215,1.215,0,0,1,.422.281,1.6,1.6,0,0,1,.308.457A3.273,3.273,0,0,1,50.079,62.332Zm-.785-.057a4.754,4.754,0,0,0-.063-.857,1.053,1.053,0,0,0-.211-.5.519.519,0,0,0-.413-.17.529.529,0,0,0-.525.381,3.467,3.467,0,0,0-.147,1.172,5.03,5.03,0,0,0,.063.882,1.106,1.106,0,0,0,.211.52.553.553,0,0,0,.816-.007,1.128,1.128,0,0,0,.209-.524A5.346,5.346,0,0,0,49.294,62.275Z" fill="#fff"/><path d="M53.709,62.332a4.915,4.915,0,0,1-.057.807,1.894,1.894,0,0,1-.212.613,1.411,1.411,0,0,1-.5.521,1.369,1.369,0,0,1-1.467-.063,1.493,1.493,0,0,1-.519-.681A2.5,2.5,0,0,1,50.819,63a4.5,4.5,0,0,1-.041-.624,5.891,5.891,0,0,1,.046-.778,2.555,2.555,0,0,1,.143-.6,1.282,1.282,0,0,1,1.259-.843,1.428,1.428,0,0,1,.535.1,1.229,1.229,0,0,1,.423.281,1.6,1.6,0,0,1,.307.457A3.273,3.273,0,0,1,53.709,62.332Zm-.784-.057a4.848,4.848,0,0,0-.063-.857,1.053,1.053,0,0,0-.212-.5.517.517,0,0,0-.412-.17.531.531,0,0,0-.526.381,3.467,3.467,0,0,0-.147,1.172,5.03,5.03,0,0,0,.063.882,1.1,1.1,0,0,0,.212.52.552.552,0,0,0,.815-.007,1.128,1.128,0,0,0,.209-.524A5.226,5.226,0,0,0,52.925,62.275Z" fill="#fff"/></g><g opacity="0.7"><path d="M17.109,64.149l1.634,2.474v-2.5a.547.547,0,0,1,.105-.366.351.351,0,0,1,.282-.121.364.364,0,0,1,.289.121.547.547,0,0,1,.106.366v3.3c0,.369-.153.552-.458.552a.634.634,0,0,1-.207-.032.549.549,0,0,1-.171-.105.94.94,0,0,1-.149-.168c-.046-.063-.092-.128-.138-.2l-1.594-2.444v2.459a.526.526,0,0,1-.111.363.371.371,0,0,1-.287.123.365.365,0,0,1-.289-.124.538.538,0,0,1-.109-.362V64.255a.926.926,0,0,1,.046-.323.465.465,0,0,1,.181-.211.489.489,0,0,1,.271-.081.471.471,0,0,1,.2.037.479.479,0,0,1,.143.1,1.077,1.077,0,0,1,.126.163Z" fill="#fff"/><path d="M23.209,67.432l-.2-.526H21.3l-.2.538a1.869,1.869,0,0,1-.2.425.317.317,0,0,1-.272.11.4.4,0,0,1-.283-.117.359.359,0,0,1-.123-.266.588.588,0,0,1,.028-.177c.019-.062.051-.147.1-.255l1.073-2.726.111-.281a1.4,1.4,0,0,1,.137-.274.558.558,0,0,1,.192-.175.585.585,0,0,1,.293-.068.592.592,0,0,1,.3.068.551.551,0,0,1,.192.172,1.192,1.192,0,0,1,.123.228c.034.081.076.189.128.325l1.1,2.707a1.364,1.364,0,0,1,.129.45.374.374,0,0,1-.122.268.4.4,0,0,1-.293.121.394.394,0,0,1-.172-.035.348.348,0,0,1-.12-.1.871.871,0,0,1-.105-.188C23.268,67.573,23.236,67.5,23.209,67.432Zm-1.683-1.165H22.78l-.633-1.731Z" fill="#fff"/><path d="M26.3,67.275,25.631,64.6v2.9a.523.523,0,0,1-.107.36.395.395,0,0,1-.565,0,.519.519,0,0,1-.109-.362V64.178a.417.417,0,0,1,.143-.371.691.691,0,0,1,.386-.095h.264a1.029,1.029,0,0,1,.345.042.289.289,0,0,1,.158.155,2.3,2.3,0,0,1,.118.363l.61,2.3.609-2.3a2.3,2.3,0,0,1,.118-.363.291.291,0,0,1,.159-.155,1.018,1.018,0,0,1,.344-.042h.264a.691.691,0,0,1,.386.095.417.417,0,0,1,.143.371V67.5a.523.523,0,0,1-.107.36.366.366,0,0,1-.288.12.357.357,0,0,1-.277-.12.519.519,0,0,1-.109-.36V64.6l-.673,2.674c-.044.174-.079.3-.107.383a.525.525,0,0,1-.153.221.447.447,0,0,1-.309.1.462.462,0,0,1-.252-.064.476.476,0,0,1-.161-.164.928.928,0,0,1-.089-.222C26.35,67.448,26.327,67.363,26.3,67.275Z" fill="#fff"/><path d="M32.682,64.367H30.767V65.4H32.53a.417.417,0,0,1,.291.088.3.3,0,0,1,.1.23.312.312,0,0,1-.095.234.415.415,0,0,1-.292.09H30.767v1.193h1.981a.43.43,0,0,1,.3.094.315.315,0,0,1,.1.247.312.312,0,0,1-.1.242.435.435,0,0,1-.3.093h-2.31a.545.545,0,0,1-.4-.123.551.551,0,0,1-.122-.4V64.232a.711.711,0,0,1,.054-.3.339.339,0,0,1,.171-.169.72.72,0,0,1,.3-.052h2.244a.443.443,0,0,1,.3.089.336.336,0,0,1,0,.476A.438.438,0,0,1,32.682,64.367Z" fill="#fff"/></g><polygon points="23.119 41.942 23.119 39.849 23.119 38.803 23.119 35.664 22.073 35.664 21.026 35.664 17.887 35.664 17.887 37.757 21.026 37.757 21.026 38.803 21.026 39.849 21.026 44.035 22.073 44.035 23.119 44.035 26.258 44.035 26.258 41.942 23.119 41.942" fill="#fff"/><rect x="24.165" y="38.803" width="2.093" height="1.046" transform="translate(50.423 78.652) rotate(180)" fill="#fff"/><rect x="24.165" y="35.664" width="2.093" height="1.046" transform="translate(50.423 72.374) rotate(180)" fill="#fff"/><rect x="17.887" y="42.988" width="2.093" height="1.046" transform="translate(37.867 87.023) rotate(180)" fill="#fff"/><rect x="17.887" y="39.849" width="2.093" height="1.046" transform="translate(37.867 80.745) rotate(180)" fill="#fff"/></g><path d="M63.6,53.5a16.944,16.944,0,0,0-.212,5.84A17.472,17.472,0,0,0,92.3,70.071l.033-.029a.409.409,0,0,0-.036-.037c-2.013-2.065-3.967-4.111-5.809-6.082l-.063-.063-.089.068a8.761,8.761,0,0,1-9.154,1.382,8.472,8.472,0,0,1-4.256-3.87,9.018,9.018,0,0,1-.4-7.961,8.808,8.808,0,0,1,4.432-4.53,16.643,16.643,0,0,0-1.883-.154c-.1,0-.2,0-.306,0-.328,0-.654.01-.974.032a15.965,15.965,0,0,0-9.907,4.238A.756.756,0,0,0,63.6,53.5Z" fill="#89b13f"/><path d="M78.177,40.067a17.336,17.336,0,0,0-12.262,7.692,18.064,18.064,0,0,0-1.207,2.132,19.069,19.069,0,0,1,9.843-3.1c.136,0,.271-.005.407,0a19.318,19.318,0,0,1,11.208,3.775l.022.016c.018-.017.038-.038.061-.062,1.839-1.941,3.8-4.008,5.822-6.063.034-.036.061-.065.082-.089-.026-.025-.058-.056-.1-.092A17.354,17.354,0,0,0,78.177,40.067Z" fill="#354554"/></g></g></svg>