<svg xmlns="http://www.w3.org/2000/svg" xmlns:xlink="http://www.w3.org/1999/xlink" viewBox="0 0 102 79.5"><defs><clipPath id="clip-path"><path d="M79.733,33.061A23.415,23.415,0,0,1,89,34.977V21.182H12v51H62.145A23.5,23.5,0,0,1,79.733,33.061Z" fill="none"/></clipPath></defs><g id="Layer_2" data-name="Layer 2"><g id="Layer_1-2" data-name="Layer 1"><rect width="102" height="79.5" fill="none"/><path d="M63.036,53.188a17.235,17.235,0,0,0-.211,5.886A17.438,17.438,0,0,0,77.693,74.159a17.257,17.257,0,0,0,13.994-4.27l.033-.029a.409.409,0,0,0-.036-.037c-2.009-2.081-3.96-4.143-5.8-6.13l-.062-.063c-.025.018-.054.04-.089.068A8.677,8.677,0,0,1,76.6,65.091a8.487,8.487,0,0,1-4.249-3.9,9.165,9.165,0,0,1-.4-8.023A8.836,8.836,0,0,1,76.37,48.6a16.6,16.6,0,0,0-1.879-.155l-.306,0c-.328,0-.654.011-.973.033a15.863,15.863,0,0,0-9.889,4.271A.764.764,0,0,0,63.036,53.188Z" fill="#89b13f"/><path d="M77.585,39.651A17.283,17.283,0,0,0,65.345,47.4a18.271,18.271,0,0,0-1.206,2.149,18.92,18.92,0,0,1,9.827-3.13c.135,0,.27,0,.405,0a19.169,19.169,0,0,1,11.188,3.8l.023.017c.017-.018.038-.038.06-.063,1.837-1.956,3.8-4.039,5.812-6.11.034-.036.061-.065.082-.089-.025-.026-.057-.057-.1-.094A17.22,17.22,0,0,0,77.585,39.651Z" fill="#354554"/><g clip-path="url(#clip-path)"><path d="M22.521,38.859a.8.8,0,0,0-.261-.073c-.1-.009-.216-.014-.359-.014h-.419v1.513h.359a2.335,2.335,0,0,0,.444-.035A.634.634,0,0,0,22.6,40.1a.647.647,0,0,0,.179-.253,1.062,1.062,0,0,0,.058-.385.84.84,0,0,0-.072-.365A.494.494,0,0,0,22.521,38.859Z" fill="#df5f4d"/><path d="M12.167,21.947V71.524h76.1V21.947Zm19.6,1.153H73.274v4.612H38.685v1.153H37.532V27.712H31.767ZM81.344,46.159v4.612H38.685V46.159ZM42.144,42.7V38.088h5.764V42.7Zm8.07,0V38.088h5.765V42.7Zm8.071,0V38.088H64.05V42.7Zm8.071,0V38.088h5.765V42.7Zm8.071,0V38.088h5.764V42.7Zm-34.589,0H34.073V38.088h5.765Zm-2.306,3.459v4.612H31.767V46.159ZM31.767,42.7H26V38.088h5.765ZM13.32,25.406V23.1H30.614V34.63H13.32ZM24.852,43.36H23.323L21.932,41.3h-.45V43.36H20.235V37.737h2.009a3.937,3.937,0,0,1,.724.058,1.441,1.441,0,0,1,.57.244,1.4,1.4,0,0,1,.425.489,1.6,1.6,0,0,1,.158.754,1.91,1.91,0,0,1-.258,1.047,1.883,1.883,0,0,1-.691.64Zm-8.61-2.492V43.36H14.988V37.737h1.254V39.8h1.707V37.737H19.2V43.36H17.949V40.868Zm-2.922,7.6V46.159H30.614v11.53H13.32ZM36.379,70.371H13.32V60H36.379Zm31.13,0H37.532V60H67.509Zm19.6,0H68.662V60H87.109Zm0-12.682H31.767V53.077H87.109Zm0-23.059H31.767V30.018H87.109Zm0-6.918H74.427V23.1H87.109Z" fill="#df5f4d"/><polygon points="30.614 23.1 13.32 23.1 13.32 24.253 16.779 24.253 16.779 25.406 13.32 25.406 13.32 34.63 30.614 34.63 30.614 23.1" fill="#df5f4d"/><polygon points="30.614 23.1 13.32 23.1 13.32 24.253 16.779 24.253 16.779 25.406 13.32 25.406 13.32 34.63 30.614 34.63 30.614 23.1" fill="#fff" opacity="0.9"/><polygon points="30.614 46.159 13.32 46.159 13.32 47.312 16.779 47.312 16.779 48.465 13.32 48.465 13.32 57.689 30.614 57.689 30.614 46.159" fill="#df5f4d"/><polygon points="30.614 46.159 13.32 46.159 13.32 47.312 16.779 47.312 16.779 48.465 13.32 48.465 13.32 57.689 30.614 57.689 30.614 46.159" fill="#fff" opacity="0.9"/><polygon points="37.532 25.406 38.685 25.406 38.685 27.712 73.274 27.712 73.274 23.1 31.767 23.1 31.767 27.712 37.532 27.712 37.532 25.406" fill="#df5f4d"/><polygon points="37.532 25.406 38.685 25.406 38.685 27.712 73.274 27.712 73.274 23.1 31.767 23.1 31.767 27.712 37.532 27.712 37.532 25.406" fill="#fde8e3" opacity="0.7"/><rect x="74.427" y="23.1" width="12.683" height="4.612" fill="#df5f4d"/><rect x="74.427" y="23.1" width="12.683" height="4.612" fill="#fde8e3" opacity="0.7"/><rect x="31.767" y="30.018" width="55.342" height="4.612" fill="#df5f4d"/><rect x="31.767" y="30.018" width="55.342" height="4.612" fill="#fde8e3" opacity="0.7"/><rect x="31.767" y="53.077" width="55.342" height="4.612" fill="#df5f4d"/><rect x="31.767" y="53.077" width="55.342" height="4.612" fill="#fde8e3" opacity="0.7"/><rect x="38.685" y="46.159" width="42.66" height="4.612" fill="#df5f4d"/><rect x="38.685" y="46.159" width="42.66" height="4.612" fill="#fde8e3" opacity="0.7"/><rect x="31.767" y="46.159" width="5.765" height="4.612" fill="#df5f4d"/><rect x="31.767" y="46.159" width="5.765" height="4.612" fill="#fde8e3" opacity="0.7"/><polygon points="40.991 61.148 37.532 61.148 37.532 70.371 67.509 70.371 67.509 59.995 40.991 59.995 40.991 61.148" fill="#df5f4d"/><polygon points="40.991 61.148 37.532 61.148 37.532 70.371 67.509 70.371 67.509 59.995 40.991 59.995 40.991 61.148" fill="#fff" opacity="0.8"/><polygon points="72.121 61.148 68.662 61.148 68.662 70.371 87.109 70.371 87.109 59.995 72.121 59.995 72.121 61.148" fill="#df5f4d"/><polygon points="72.121 61.148 68.662 61.148 68.662 70.371 87.109 70.371 87.109 59.995 72.121 59.995 72.121 61.148" fill="#fff" opacity="0.8"/><polygon points="16.779 61.148 13.32 61.148 13.32 70.371 36.379 70.371 36.379 59.995 16.779 59.995 16.779 61.148" fill="#df5f4d"/><polygon points="16.779 61.148 13.32 61.148 13.32 70.371 36.379 70.371 36.379 59.995 16.779 59.995 16.779 61.148" fill="#fde8e3" opacity="0.7"/><rect x="34.073" y="38.088" width="5.765" height="4.612" fill="#fff"/><rect x="26.002" y="38.088" width="5.765" height="4.612" fill="#fff"/><rect x="42.144" y="38.088" width="5.765" height="4.612" fill="#fff"/><rect x="50.214" y="38.088" width="5.765" height="4.612" fill="#fff"/><rect x="58.285" y="38.088" width="5.765" height="4.612" fill="#fff"/><rect x="66.356" y="38.088" width="5.765" height="4.612" fill="#fff"/><rect x="74.427" y="38.088" width="5.765" height="4.612" fill="#fff"/><polygon points="19.203 43.36 19.203 37.737 17.949 37.737 17.949 39.795 16.242 39.795 16.242 37.737 14.988 37.737 14.988 43.36 16.242 43.36 16.242 40.868 17.949 40.868 17.949 43.36 19.203 43.36" fill="#fff"/><path d="M23.863,40.329a1.91,1.91,0,0,0,.258-1.047,1.6,1.6,0,0,0-.158-.754,1.4,1.4,0,0,0-.425-.489,1.441,1.441,0,0,0-.57-.244,3.937,3.937,0,0,0-.724-.058H20.235V43.36h1.247V41.3h.45l1.391,2.062h1.529l-1.68-2.391A1.883,1.883,0,0,0,23.863,40.329Zm-1.088-.485a.647.647,0,0,1-.179.253.634.634,0,0,1-.311.153,2.335,2.335,0,0,1-.444.035h-.359V38.772H21.9c.143,0,.263.005.359.014a.8.8,0,0,1,.261.073.494.494,0,0,1,.24.235.84.84,0,0,1,.072.365A1.062,1.062,0,0,1,22.775,39.844Z" fill="#fff"/><rect x="13.32" y="24.253" width="3.459" height="1.153" fill="#df5f4d"/><rect x="37.532" y="27.712" width="1.153" height="1.153" fill="#df5f4d"/><rect x="37.532" y="25.406" width="1.153" height="2.306" fill="#df5f4d"/><rect x="13.32" y="47.312" width="3.459" height="1.153" fill="#df5f4d"/><rect x="13.32" y="59.995" width="3.459" height="1.153" fill="#df5f4d"/><rect x="37.532" y="59.995" width="3.459" height="1.153" fill="#df5f4d"/><rect x="68.662" y="59.995" width="3.459" height="1.153" fill="#df5f4d"/></g></g></g></svg>