<svg xmlns="http://www.w3.org/2000/svg" xmlns:xlink="http://www.w3.org/1999/xlink" viewBox="0 0 102 79.5"><defs><clipPath id="clip-path"><path d="M79.733,33A23.415,23.415,0,0,1,89,34.917V9.121H12v63H62.145A23.5,23.5,0,0,1,79.733,33Z" fill="none"/></clipPath></defs><g id="Layer_2" data-name="Layer 2"><g id="Layer_1-2" data-name="Layer 1"><rect width="102" height="79.5" fill="none"/><path d="M62.84,53.248a17.266,17.266,0,0,0-.212,5.887A17.44,17.44,0,0,0,77.5,74.22a17.26,17.26,0,0,0,14-4.27l.033-.029c-.011-.012-.022-.024-.036-.037-2.009-2.081-3.96-4.143-5.8-6.13-.024-.025-.044-.047-.062-.063l-.088.068A8.681,8.681,0,0,1,76.4,65.152a8.485,8.485,0,0,1-4.249-3.9,9.162,9.162,0,0,1-.4-8.022,8.838,8.838,0,0,1,4.424-4.566,16.135,16.135,0,0,0-1.879-.155c-.1,0-.2,0-.3,0-.328,0-.654.01-.973.033a15.86,15.86,0,0,0-9.89,4.271A.765.765,0,0,0,62.84,53.248Z" fill="#25a9e0"/><path d="M77.389,39.712a17.285,17.285,0,0,0-12.241,7.752,18.32,18.32,0,0,0-1.2,2.149,18.9,18.9,0,0,1,9.826-3.13c.136,0,.271,0,.406,0a19.17,19.17,0,0,1,11.188,3.805l.023.016c.017-.017.038-.037.06-.062,1.837-1.956,3.8-4.039,5.812-6.11.034-.036.061-.066.082-.09-.026-.026-.058-.057-.1-.093A17.214,17.214,0,0,0,77.389,39.712Z" fill="#354554"/><g clip-path="url(#clip-path)"><path d="M45.561,18.111,80.232,28.258,55.939,10.908s-3.008-2.093-5.134.549C48.912,13.809,45.561,18.111,45.561,18.111Z" fill="#25a9e0" fill-rule="evenodd"/><path d="M73.961,28.258,34.181,17.6a3.383,3.383,0,0,0-4.364,1.97c-1.018,2.235-2.981,6.5-3.89,8.67Z" fill="#25a9e0" fill-rule="evenodd"/><path d="M82.746,36.4v-2.29h0v-.78H82.7a2.855,2.855,0,0,0-2.921-2.681H24.556c-1.142-.1-2.439-.442-2.929-1.566-.6-1.374.28-3.089,2.442-3.182.421-1.052.7-1.7,1.144-2.849a4.009,4.009,0,0,0-1.6-.375c-4.957-.132-8.585,3.073-8.6,8.681-.025,7.539-.006,13.988.015,21.357l-.007,11.2a8.5,8.5,0,0,0,8.722,8.207h56.03a2.88,2.88,0,0,0,2.957-2.756l.014-.868,0-.4V65.8h0V36.4Z" fill="#354554" fill-rule="evenodd"/></g></g></g></svg>